<svg xmlns="http://www.w3.org/2000/svg" viewBox="0 0 351 303.52"><defs><style>.cls-1{fill:none;stroke:#0192c1;stroke-miterlimit:10;}.cls-2{fill:#cceaf2;}.cls-3{fill:#0192c1;}</style></defs><g id="Layer_2" data-name="Layer 2"><g id="logo"><rect class="cls-1" x="120.44" y="-0.16" width="0.75" height="25.2" transform="translate(4.42 47.14) rotate(-22.48)"/><path class="cls-1" d="M72.22,76.06,48.54,60.24l-.42.62L71.67,76.6Z"/><rect class="cls-1" x="0.5" y="145.55" width="7.49" height="0.75"/><rect class="cls-1" x="38.33" y="49.86" width="0.75" height="8.52" transform="translate(-27.79 56.23) rotate(-56.24)"/><path class="cls-1" d="M39.33,145.55H16.72v.75H39.3Z"/><rect class="cls-1" x="294.18" y="45.94" width="6.62" height="0.75" transform="translate(38.15 199.25) rotate(-39.38)"/><path class="cls-1" d="M133.54,42.19l-4.73-11.43-.7.29,4.7,11.34Z"/><path class="cls-1" d="M271.16,68.41l18.53-15.2-.48-.58L270.56,67.92Z"/><rect class="cls-1" x="213.38" y="8.88" width="8.3" height="0.75" transform="translate(145.58 214.75) rotate(-73.14)"/><path class="cls-1" d="M208.64,39.85l5.17-17-.72-.21L207.9,39.7Z"/><path class="cls-1" d="M221.37,256.42,228.22,273l.69-.29-6.81-16.46Z"/><rect class="cls-1" x="304.56" y="226.2" width="0.75" height="11.75" transform="translate(-57.46 356.63) rotate(-56.24)"/><path class="cls-1" d="M284.38,218.78l10.35,6.92.41-.63-10.24-6.85Z"/><path class="cls-1" d="M312.82,146.3h8.36v-.75h-8.4C312.79,145.8,312.81,146.05,312.82,146.3Z"/><rect class="cls-1" x="329.29" y="145.55" width="21.21" height="0.75"/><path class="cls-1" d="M76.41,227.18,63.94,237.41l.47.58L77,227.68Z"/><rect class="cls-1" x="46.99" y="245.68" width="13.99" height="0.75" transform="translate(-143.73 89.95) rotate(-39.33)"/><rect class="cls-1" x="233.35" y="277.18" width="0.75" height="16.19" transform="translate(-91.32 111.05) rotate(-22.48)"/><rect class="cls-1" x="121.81" y="293.44" width="18.74" height="0.75" transform="translate(-188.09 333.85) rotate(-73.09)"/><path class="cls-1" d="M141.33,259.1l-5,16.59.72.22,5.05-16.65Z"/><path class="cls-2" d="M298.86,145.48c-5.91-.93-13.74-8.21-20.65-14.62-1.76-1.64-3.43-3.18-5.06-4.63,3.7-4.25,7.15-10.31,9.46-14.82A4.6,4.6,0,0,0,280.1,105c-.71-.26-1.5-.57-2.37-.91a82.24,82.24,0,0,0-14.06-4.42,35.28,35.28,0,0,0-9.35-.76,30,30,0,0,0-1.57-7.2,34.85,34.85,0,0,1,0-22.42L255,63.65l-4.39,4.19C244.49,73.65,241,74.2,234,75.31c-3.09.49-6.94,1.1-11.88,2.33A58.64,58.64,0,0,0,214.74,80c.45-2.14.89-4.37,1.07-5.77.22-1.81.57-3.85.82-5.26a3.68,3.68,0,0,0-3.26-4.32l-1.22-.14c-3.66-.41-8.69-1-13,.37A18.4,18.4,0,0,0,194.66,67c-.55-.6-1.12-1.2-1.73-1.77A144.64,144.64,0,0,1,178.1,48.62l-1.28-1.74-1,1.93c-1.1,2.2-3.5,4.5-6.54,7.41a106.54,106.54,0,0,0-8.72,9.08,17.83,17.83,0,0,0-1.87,2.79,17.07,17.07,0,0,0-2.65-1.78c-4-2.14-10.9-1.82-16-1.17a3.74,3.74,0,0,0-2.84,1.92,3.87,3.87,0,0,0-.11,3.49,17.9,17.9,0,0,1,1.6,6.27c0,.78.13,1.58.23,2.4a56.2,56.2,0,0,0-6.14-1.59,117.66,117.66,0,0,1-28.28-10l-2.81-1.5.92,3.05c2.66,8.76.44,14.32-1.7,19.69-1.28,3.19-2.59,6.49-2.76,10.27q0,.6,0,1.23a47.37,47.37,0,0,0-16.65,1.52c-3,.88-5.83,1.86-8.46,2.91a4.54,4.54,0,0,0-2.54,2.51,4.67,4.67,0,0,0,.07,3.63q.31.72.66,1.56A54.56,54.56,0,0,0,75,120.16a45.93,45.93,0,0,0,5.46,7c-.89.89-1.79,1.86-2.71,3-8.45,10.15-24.35,15.4-24.51,15.45l-4.92,1.6,5.09,1c13.57,2.56,15.36,8.59,17.63,16.24,1.27,4.3,2.72,9.18,6.47,13.91a27.91,27.91,0,0,0,13.46,9,112.52,112.52,0,0,1-6.79,11.46,3.69,3.69,0,0,0-.46,3.53,3.74,3.74,0,0,0,2.73,2.32,127.56,127.56,0,0,0,16.8,2.5c.64,12,8.81,27.43,9.16,28.09l.65,1.22,1.19-.7c.07,0,6.44-3.79,13.55-7.77a36.75,36.75,0,0,0,7.33,17,5.28,5.28,0,0,0,6.57,1.35c3.44-1.81,9.53-5.7,13.45-12,2.38,2.19,4.51,3.94,5.62,4.85,4.74,3.88,15.22,14.35,15.33,14.45l1,1,.93-1a119.49,119.49,0,0,1,20-16.1,25.45,25.45,0,0,0,3.15-2.4,73.35,73.35,0,0,0,11.05,10.56,4.73,4.73,0,0,0,2.88,1,5,5,0,0,0,.67-.05,4.68,4.68,0,0,0,3.13-1.86,56.64,56.64,0,0,0,8.44-15.9c7,3.31,13.38,6.5,13.44,6.53l1.29.65.38-1h.25l0-.54a80.09,80.09,0,0,1,4.53-9c2.68-4.77,5.21-9.28,6.06-14.94a25.06,25.06,0,0,0,.24-2.84,82.21,82.21,0,0,0,13.42-3,4.36,4.36,0,0,0,2.78-5.78,50.36,50.36,0,0,0-5.9-11.2,39.41,39.41,0,0,0,20.25-23.22,25.46,25.46,0,0,1,15-16.33l5.45-1.68Z"/><path class="cls-3" d="M298.9,145.82c-5.91-.93-13.74-8.21-20.65-14.62-1.76-1.63-3.43-3.18-5.06-4.63,3.7-4.24,7.15-10.31,9.46-14.82a4.61,4.61,0,0,0-2.51-6.42c-.71-.26-1.5-.57-2.37-.91A82.36,82.36,0,0,0,263.71,100a34.89,34.89,0,0,0-9.35-.77,30,30,0,0,0-1.57-7.2,35,35,0,0,1,0-22.42L255,64l-4.39,4.19C244.53,74,241,74.55,234,75.65c-3.09.49-6.94,1.1-11.88,2.34a57,57,0,0,0-7.37,2.36c.45-2.14.89-4.37,1.07-5.77.22-1.8.57-3.85.82-5.25A3.68,3.68,0,0,0,213.41,65l-1.22-.14c-3.67-.41-8.69-1-13,.37a18.79,18.79,0,0,0-4.46,2.07c-.55-.6-1.12-1.2-1.73-1.77A144.64,144.64,0,0,1,178.14,49l-1.28-1.74-1,1.93c-1.1,2.2-3.5,4.5-6.54,7.41a108.05,108.05,0,0,0-8.72,9.08,17.83,17.83,0,0,0-1.87,2.79,17.07,17.07,0,0,0-2.65-1.78c-4-2.14-10.91-1.82-16-1.17a3.74,3.74,0,0,0-2.84,1.92,3.87,3.87,0,0,0-.11,3.49,17.9,17.9,0,0,1,1.6,6.27c.05.78.13,1.58.23,2.4A56.2,56.2,0,0,0,132.84,78a117.46,117.46,0,0,1-28.28-10l-2.81-1.5.92,3c2.66,8.76.44,14.32-1.71,19.7-1.27,3.18-2.58,6.48-2.75,10.26q0,.6,0,1.23a47.37,47.37,0,0,0-16.65,1.52c-3,.88-5.83,1.86-8.46,2.91a4.56,4.56,0,0,0-2.54,2.52,4.69,4.69,0,0,0,.06,3.62c.22.48.44,1,.67,1.56a53.51,53.51,0,0,0,3.79,7.66,46.55,46.55,0,0,0,5.46,7c-.89.88-1.79,1.85-2.71,3-8.46,10.15-24.35,15.4-24.51,15.45l-4.92,1.6,5.09.95C67,151,68.82,157,71.09,164.66c1.27,4.3,2.72,9.18,6.47,13.91a27.91,27.91,0,0,0,13.46,9A110.46,110.46,0,0,1,84.22,199a3.75,3.75,0,0,0,2.28,5.85,127.56,127.56,0,0,0,16.8,2.5c.64,12,8.81,27.44,9.16,28.1l.65,1.21,1.19-.7c.07,0,6.44-3.78,13.55-7.77a36.82,36.82,0,0,0,7.32,17,5.29,5.29,0,0,0,6.58,1.35c3.44-1.81,9.53-5.69,13.45-12,2.38,2.2,4.51,3.94,5.62,4.85,4.74,3.88,15.22,14.35,15.33,14.45l1,1,.93-1a119.49,119.49,0,0,1,20-16.1,25.45,25.45,0,0,0,3.15-2.4,73.35,73.35,0,0,0,11,10.56,4.73,4.73,0,0,0,2.88,1,5,5,0,0,0,.67-.05,4.7,4.7,0,0,0,3.13-1.86,56.5,56.5,0,0,0,8.44-15.9c7,3.31,13.37,6.5,13.44,6.53l1.29.65.38-1h.24c0-.19,0-.37,0-.55a80.09,80.09,0,0,1,4.53-9c2.68-4.77,5.21-9.28,6-14.93a23.24,23.24,0,0,0,.25-2.85,82.21,82.21,0,0,0,13.42-3,4.44,4.44,0,0,0,2.66-2.29,4.39,4.39,0,0,0,.12-3.48,50.2,50.2,0,0,0-5.9-11.21,39.41,39.41,0,0,0,20.25-23.22,25.46,25.46,0,0,1,15-16.33l5.45-1.68Zm-35.73-43.23a80,80,0,0,1,13.63,4.29c.87.34,1.69.66,2.43.93a2,2,0,0,1,1.07,2.74c-1.85,3.6-5.38,10-9.11,14.28l-.25-.2-.33-.27-.33-.25-.34-.26-.33-.24-.35-.25-.33-.23-.34-.23-.34-.21-.35-.23-.33-.2-.35-.21-.34-.19-.35-.19c-.11-.07-.23-.12-.34-.18l-.35-.19-.34-.17-.35-.17-.33-.16-.35-.16-.34-.15-.34-.15-.35-.14-.33-.14-.35-.13-.33-.13-.34-.12-.33-.12-.33-.11-.33-.11-.34-.11-.31-.1-.34-.1-.3-.09-.34-.09-.29-.08-.35-.09-.27-.07-.35-.08-.26-.06-.35-.08-.24,0-.35-.07-.23,0-.36-.07-.2,0-.36-.06-.18,0-.38-.06-.14,0-.37,0-.14,0-.34,0-.15,0-.34,0h-.12l-.36,0h-.08l-.18,0a34.84,34.84,0,0,1,5.77-3.76,28.14,28.14,0,0,1,9.66-3,28.74,28.74,0,0,0-10.11,2,35.35,35.35,0,0,0-5.75,2.85l0-.17.09-.33c.05-.16.09-.32.13-.48s.07-.25.1-.38l.12-.49c0-.14.07-.28.1-.42l.12-.52c0-.15.07-.3.1-.45s.07-.36.11-.54.06-.32.1-.48.07-.37.1-.56l.09-.51c0-.19.07-.39.1-.58s0-.36.08-.54.06-.4.08-.6,0-.37.08-.56,0-.41.07-.62l.06-.57c0-.21,0-.43,0-.64s0-.39.05-.59,0-.44,0-.67l0-.58c0-.24,0-.48,0-.71s0-.38,0-.58v-.79c0-.17,0-.34,0-.51v0A32.57,32.57,0,0,1,263.17,102.59ZM199.94,67.75c3.82-1.17,8.33-.67,12-.26l1.24.14a1,1,0,0,1,.73.41,1.05,1.05,0,0,1,.2.82c-.26,1.43-.61,3.53-.85,5.4-.21,1.71-.86,4.83-1.42,7.37l-.2.09-.41.2-.51.24-.4.21-.48.24-.39.21-.47.24-.37.21-.45.25-.36.2-.42.25-.35.21-.4.24-.34.21-.38.24-.33.21-.36.23-.31.21-.35.23-.29.21-.33.22-.28.2-.3.23-.28.19-.28.22-.26.19-.28.22-.23.18-.28.23-.19.15-.45.37.06-.54s0-.11,0-.16l0-.39a1.49,1.49,0,0,0,0-.21l0-.34c0-.08,0-.16,0-.23l0-.34a1.93,1.93,0,0,1,0-.24c0-.11,0-.22,0-.33s0-.16,0-.25,0-.21,0-.32v-.87c.57-1.85,1.15-3.7,1.82-5.51a30.65,30.65,0,0,1,1.47-3.44,9.3,9.3,0,0,1,2.22-3,9.61,9.61,0,0,0-2.69,2.7,35.54,35.54,0,0,0-2,3.28c-.38.7-.75,1.42-1.11,2.14a.77.77,0,0,1,0-.15c0-.09,0-.17-.05-.26l-.06-.38c0-.08,0-.16,0-.25l-.09-.4a1.43,1.43,0,0,0,0-.22c0-.18-.08-.36-.13-.55,0,0,0,0,0-.08-.05-.21-.11-.42-.17-.63l-.06-.22-.12-.42-.09-.26-.12-.37-.1-.28c0-.12-.08-.24-.13-.36s-.07-.19-.11-.29l-.14-.35-.12-.29-.15-.35-.13-.3a3.54,3.54,0,0,1-.16-.34l-.15-.3-.17-.34c0-.1-.1-.2-.16-.3l-.18-.34-.17-.3-.2-.34-.18-.3-.21-.34-.19-.3-.23-.34-.2-.3c-.08-.11-.16-.23-.25-.34l-.21-.29,0-.08A15.44,15.44,0,0,1,199.94,67.75Zm-60.36.93a1.09,1.09,0,0,1,.85-.58c6.69-.85,11.81-.53,14.43.88a15,15,0,0,1,2.72,1.89l-.05.14-.2.51c-.09.21-.17.43-.25.65l-.18.53c-.08.21-.16.43-.23.65s-.11.36-.17.55-.13.43-.19.65-.11.37-.16.56-.12.44-.17.66-.1.37-.14.56-.11.44-.16.66l-.12.56c-.05.22-.1.44-.14.66s-.08.37-.11.56l-.12.65c0,.19-.07.37-.1.56s-.07.42-.1.64-.06.36-.08.54-.06.42-.09.63v0a23.09,23.09,0,0,0-2.28-3.39,30.91,30.91,0,0,0-7-6.22,30.23,30.23,0,0,1,6.07,6.87,19.85,19.85,0,0,1,2.75,6.71l0,.41,0,.39c0,.22,0,.43,0,.64a2.83,2.83,0,0,0,0,.29c0,.3,0,.59,0,.87q-.21-.22-.45-.45l-.14-.13-.34-.33-.19-.17-.34-.3-.23-.2-.34-.29-.26-.21-.36-.3-.28-.21-.39-.3-.31-.22-.4-.29-.34-.23c-.14-.1-.28-.2-.43-.29l-.36-.24-.45-.29-.39-.24-.48-.28-.42-.24-.5-.28-.44-.24-.53-.28-.47-.24-.56-.27-.5-.23-.59-.27-.52-.23-.63-.26-.54-.22-.27-.11q-.27-1.85-.39-3.57a20.57,20.57,0,0,0-1.85-7.2A1.2,1.2,0,0,1,139.58,68.68ZM73.7,111.82c-.24-.58-.47-1.12-.69-1.61a2,2,0,0,1,0-1.56,1.92,1.92,0,0,1,1.07-1.06c2.56-1,5.32-2,8.23-2.82a44.87,44.87,0,0,1,12-1.6,36.16,36.16,0,0,1,4,.21.45.45,0,0,0,0,.11c0,.19,0,.38,0,.57l.06.73c0,.19,0,.39.07.59l.09.7c0,.2,0,.4.08.6s.07.46.1.69.07.4.1.6l.12.68c0,.19.07.39.11.59s.08.44.13.66l.12.58c0,.22.09.44.14.65l.12.57.15.63c0,.18.09.36.13.54s.1.42.16.62.08.35.13.52.1.4.16.6.09.32.13.48.11.39.16.58.09.31.13.45.11.38.17.56l.12.41c.06.19.11.37.17.54a2.13,2.13,0,0,0,.08.27L99.71,117c-1.56-.89-3.15-1.74-4.78-2.52a47.94,47.94,0,0,0-5-2.09,31.61,31.61,0,0,0-5.19-1.4,31.58,31.58,0,0,1,5,1.91,46.81,46.81,0,0,1,4.66,2.55c1.51.92,3,1.91,4.41,3,.85.6,1.67,1.22,2.5,1.84-4.93,0-9.42,0-14,2.29l-.11,0-.5.26-.19.1-.42.23-.24.14-.38.23-.26.16-.36.23-.28.19-.34.24a1.94,1.94,0,0,0-.29.21l-.34.24-.29.23-.34.26-.3.24-.17.15a43.18,43.18,0,0,1-5.17-6.57A51.49,51.49,0,0,1,73.7,111.82Zm12.54,89.75a1.06,1.06,0,0,1,.13-1,116.86,116.86,0,0,0,7.24-12.24h0l.36.09.68.17.45.1.57.12.47.09.55.11.47.08.52.09.46.07.52.08.44.06.52.06.42.05.51.06.4,0,.51.05.36,0,.52,0,.33,0,.52,0h.47a27.85,27.85,0,0,0-3.36,2.27,34.75,34.75,0,0,0-6.74,7.08,34.19,34.19,0,0,1,7.37-6.18,25,25,0,0,1,5.74-2.64q-.14.25-.27.54a.47.47,0,0,1,0,.1l-.22.48a1.42,1.42,0,0,0-.08.18c-.08.16-.15.33-.22.5a2.14,2.14,0,0,1-.1.22l-.21.53-.09.24c-.08.19-.14.37-.21.57a2,2,0,0,0-.1.26c-.07.2-.14.4-.2.6l-.09.28c-.07.21-.14.42-.2.64l-.09.3-.18.67-.08.32c-.06.23-.12.47-.17.71s0,.22-.08.34l-.15.74-.06.35c0,.26-.1.52-.14.78s0,.25,0,.38-.08.53-.12.81c0,.13,0,.26,0,.4l-.09.83,0,.46c0,.27-.05.55-.06.83l0,.62c0,.24,0,.47,0,.72h0A127.28,127.28,0,0,1,87,202.25,1.07,1.07,0,0,1,86.24,201.57Zm54.28,42.64a2.64,2.64,0,0,1-3.29-.67,34.57,34.57,0,0,1-6.92-16.74l.2-.13.47-.29.49-.33.45-.32.47-.35.43-.33.45-.37.42-.35.43-.38.39-.36.42-.39.37-.37.39-.4.36-.37.37-.41.34-.37.35-.42.32-.37.34-.42.29-.36.32-.42.27-.35.3-.42.25-.34.29-.42.22-.31L140,217l.19-.27c0-.08.09-.15.13-.22,0,.27,0,.54,0,.8,0,1.85,0,3.7,0,5.54.07,3.69.19,7.37.38,11q.27-5.52.72-11c.15-1.74.3-3.47.48-5.2a2.56,2.56,0,0,0,.11.24c.09.2.19.4.29.61l.24.47.31.59c.09.16.18.33.28.49l.32.57.31.51.35.57c.11.18.23.35.34.52s.24.38.37.57l.37.53.39.57.4.53.42.57.42.54.45.58.44.54.48.58.47.54c.16.2.34.4.51.59l.48.55.55.59c.16.19.33.37.5.55l.58.6.52.55.61.61.55.54a3,3,0,0,0,.25.25C149.67,238.75,143.8,242.49,140.52,244.21Zm76.3-.86a2.06,2.06,0,0,1-1.38.81,2.1,2.1,0,0,1-1.58-.41,71.84,71.84,0,0,1-10.75-10.3c.06-.07.12-.13.17-.2a6.91,6.91,0,0,0,.51-.57c.2-.22.39-.44.58-.67s.32-.38.47-.58.37-.46.54-.7.3-.39.44-.59l.5-.72c.14-.2.27-.4.4-.6l.47-.73c.13-.2.25-.4.37-.6s.29-.5.43-.75.23-.4.34-.6.27-.5.4-.75l.31-.59.37-.76.27-.57.34-.76c.09-.19.17-.37.25-.56s.21-.5.31-.75l.22-.54c.1-.25.19-.5.28-.75s.13-.33.19-.5l.27-.74c.05-.16.1-.31.16-.46l.24-.74c0-.14.09-.28.13-.41s.15-.5.23-.75l.1-.34,0-.08s0,.07,0,.11c.26,1.9.46,3.81.64,5.73.36,3.83.61,7.68.79,11.54.19-3.86.3-7.72.31-11.59,0-1.94,0-3.88-.09-5.83h0l.34.5.13.2.48.7c.05.07.11.14.16.22l.5.71c.06.08.11.16.17.23.18.24.35.49.54.73,0,.08.11.15.17.23l.57.74.17.22.56.69.21.25c.18.22.36.44.55.65l.22.26.59.66.21.23c.21.23.43.45.64.67l.23.24.66.64.23.22.68.62.23.19.71.59.2.16.75.56.17.11.81.53,0,0C223.12,234.22,219.11,240.24,216.82,243.35Zm50.41-41.87a1.67,1.67,0,0,1-1.05.91,81,81,0,0,1-12.68,2.89l0-.42,0-.48-.06-.6c0-.15,0-.3,0-.45s-.05-.44-.08-.65,0-.26,0-.38c-.05-.34-.09-.67-.15-1,0-.08,0-.16,0-.24,0-.25-.09-.5-.13-.75s0-.26-.08-.38-.07-.4-.11-.59l-.09-.4c0-.18-.07-.37-.11-.54s-.07-.27-.1-.4l-.12-.51-.09-.38c-.05-.17-.09-.33-.13-.49s-.06-.24-.1-.37l-.12-.46c0-.11-.07-.23-.1-.34s-.09-.3-.13-.44l-.09-.31c-.05-.15-.09-.29-.13-.43l-.09-.28c0-.14-.09-.27-.13-.41s0-.16-.08-.23l0-.11a24.2,24.2,0,0,1,3.58,1.84A16.68,16.68,0,0,1,259.7,200a17.18,17.18,0,0,0-4.4-5.79,26,26,0,0,0-3.06-2.26l.44-.1.95-.21.58-.15.85-.22.6-.17.81-.23.61-.19.79-.25.59-.21.78-.27.58-.22.77-.3.56-.23.23-.1a47.43,47.43,0,0,1,5.9,11A1.66,1.66,0,0,1,267.23,201.48Zm14.34-37.58a37,37,0,0,1-20.35,22.37,47.84,47.84,0,0,1-12.51,3.61l-1.68.25.65,1.57a1.26,1.26,0,0,1,.09.22,48.32,48.32,0,0,1,3.08,13.28q0,.78.06,1.56a21.83,21.83,0,0,1-.23,3.62c-.78,5.18-3.19,9.48-5.75,14-.87,1.56-1.76,3.14-2.6,4.8-.19-1.74-.42-3.48-.72-5.2a66.57,66.57,0,0,0-2.84-10.87A53.94,53.94,0,0,0,234,203l-.36-.6-.39-.58-.79-1.16c-.25-.39-.57-.74-.85-1.11s-.56-.75-.87-1.09a22.87,22.87,0,0,0-4.11-3.76,27.07,27.07,0,0,1,6.9,8.58,53,53,0,0,1,4.17,10.21A63.93,63.93,0,0,1,240,224.27a74.77,74.77,0,0,1,.56,8.19c-2.46-1.22-7.68-3.79-13.09-6.33l-.3-.15c-6.91-3.52-13.58-15.9-13.64-16l-1.9-3.54-.58,4a2,2,0,0,1,0,.23c-.31,1.81-2.67,14.06-10.56,21.8h0a23.39,23.39,0,0,1-3.79,3,126.62,126.62,0,0,0-18.74,14.74l-1-41.4-1,41c-3.37-3.32-9.8-9.57-13.34-12.47-1.27-1-3.91-3.2-6.7-5.86-7.57-7.22-12-13.88-13.11-19.8l-.79-4.07-1.71,3.77c-.05.09-4.34,9.36-11.77,13.49l-1,.52h0c-5.4,3-10.5,6-13,7.4a79.59,79.59,0,0,1,.57-8.71A85.24,85.24,0,0,1,117,213.43a55,55,0,0,1,3.55-10.2,29.08,29.08,0,0,1,2.73-4.67,16.89,16.89,0,0,1,3.78-3.86,17.1,17.1,0,0,0-4,3.69,30.44,30.44,0,0,0-3,4.59A56.23,56.23,0,0,0,116,213.13a87.32,87.32,0,0,0-2.52,10.69q-.5,2.94-.8,5.93c-2.53-5.55-6.43-15.24-6.71-23a2.44,2.44,0,0,1,0-.27v-.43c-.19-10.76,4.53-16.86,4.57-16.92l2-2.47-3.15.33a47.94,47.94,0,0,1-13.72-1c-.75-.17-1.51-.36-2.27-.57h0c-5.91-1.69-10.51-4.56-13.67-8.54-3.43-4.33-4.74-8.75-6-13-2.09-7-4.07-13.72-15.43-17.07,5.51-2.3,15.34-7.17,21.64-14.73a37,37,0,0,1,3.44-3.63,19.47,19.47,0,0,1,11.94-5.41c.58-.06,1.17-.1,1.76-.13s1.2,0,1.82-.06h7.08l-.7-1.8s-.16-.39-.38-1c-1-2.79-3.63-10.75-3.94-17.91q-.06-1.35,0-2.55c.15-3.34,1.33-6.28,2.57-9.41,2-4.88,4.12-10.36,2.58-18.23a53.48,53.48,0,0,1,6.43,5.53,77.86,77.86,0,0,1,7.78,9.2,97.07,97.07,0,0,1,6.51,10.22,88.75,88.75,0,0,1,5.19,11,89,89,0,0,0-4.7-11.24,100.37,100.37,0,0,0-6.09-10.59,80.57,80.57,0,0,0-7.5-9.71c-.72-.79-1.45-1.56-2.21-2.31a112.91,112.91,0,0,0,20.91,6.52,51.7,51.7,0,0,1,7.81,2.19l1,.37.06,0,.88.37.2.09.69.3.26.12.6.28.23.11.59.3.23.12.55.29.24.14.5.27.24.15.46.27.25.16.42.26.27.17.36.24.28.2.31.21.29.22.27.19.29.22.24.18.29.24a1.56,1.56,0,0,1,.2.16l.29.24.18.15.29.25.13.12c.11.09.21.19.3.28l.1.09.3.28.07.07.3.29,0,0c.11.1.21.21.3.31h0a13,13,0,0,1,1.72,2.16l2.6,4.64L156.81,92s0-.34,0-.9c0-.34,0-.78,0-1.28.11-4,.68-12.53,3.55-18.75h0a16.31,16.31,0,0,1,2.29-3.74,104.4,104.4,0,0,1,8.51-8.87c1.81-1.73,3.4-3.26,4.69-4.73l1,36.53,1-37.35a148.31,148.31,0,0,0,13.28,14.53,29.44,29.44,0,0,1,2.31,2.45,24.74,24.74,0,0,1,2.06,2.87,21.77,21.77,0,0,1,3.16,11.37,35,35,0,0,1-.86,7.63l-1.07,5.07,3.37-3.94c0-.05,4.35-5,13.11-9H214l.09-.38a54.85,54.85,0,0,1,8.69-3c4.83-1.21,8.61-1.81,11.66-2.29a47.72,47.72,0,0,0,8.16-1.75l0,0c-2.51,2.88-4.89,5.88-7.13,9a93.74,93.74,0,0,0-6.14,9.66,48.77,48.77,0,0,0-4.42,10.52,48.89,48.89,0,0,1,4.89-10.24,92.21,92.21,0,0,1,6.55-9.27c2.36-3,4.86-5.8,7.47-8.53,1.09-1.13,2.21-2.23,3.34-3.31.63-.4,1.28-.84,1.94-1.35a37.05,37.05,0,0,0,1.22,19.94,28.12,28.12,0,0,1,1.53,7.82c0,.87.07,1.72,0,2.57A46.85,46.85,0,0,1,249,118.43l-.77,1.89,2.05-.07h0c.75,0,11.28-.09,19.33,6.75l.79.68c1.92,1.67,3.9,3.51,6,5.46,6.24,5.8,12.66,11.76,18.49,14.24A28.39,28.39,0,0,0,281.57,163.9Z"/><path class="cls-3" d="M262.82,170.39a102,102,0,0,0-12.76,2.82,106.34,106.34,0,0,0-12.3,4.47c-4,1.73-7.9,3.72-11.74,5.75s-7.64,4.09-11.49,6a87.69,87.69,0,0,1-11.85,4.89,69.51,69.51,0,0,1-12.43,2.83,78.84,78.84,0,0,1-12.77.59,123.76,123.76,0,0,1-25.5-3.12c-.52-.12-1-.22-1.57-.36l-1.55-.4-3.12-.82c-2.05-.64-4.12-1.2-6.14-1.93a118.45,118.45,0,0,1-11.94-4.79c-1.93-.93-3.86-1.89-5.7-2.95s-3.78-2.16-5.68-3.21c-3.81-2.09-7.63-4.14-11.49-6.13s-7.74-3.93-11.69-5.74A110.37,110.37,0,0,0,81,163.43c1,.42,2,.8,3,1.25s2,.88,3,1.36c2,.93,3.89,1.91,5.81,2.91,3.84,2,7.63,4.08,11.4,6.21s7.52,4.29,11.25,6.5c1.85,1.11,3.73,2.2,5.55,3.34s3.83,2.17,5.78,3.17l3,1.42,3,1.33c2,.83,4.05,1.65,6.12,2.37s4.15,1.38,6.23,2.06l3.16.88,1.59.43c.52.15,1.06.26,1.59.39a123.31,123.31,0,0,0,26,3.33,80.75,80.75,0,0,0,13.17-.67,69.36,69.36,0,0,0,12.87-3,89.38,89.38,0,0,0,12.1-5.19q1.63-.84,3.24-1.71c1.42-.35,2.84-.69,4.27-1s3.16-.65,4.75-.93l4.79-.89c1.59-.32,3.19-.64,4.79-1l2.38-.61c.8-.22,1.58-.45,2.37-.7a39.49,39.49,0,0,0,9-4.06,90,90,0,0,1-9.32,2.74c-.78.18-1.58.33-2.36.52l-2.37.48c-.8.14-1.59.31-2.38.46l-2.39.44c-1.6.32-3.2.63-4.79,1-1.39.33-2.77.66-4.14,1.06l3.65-2a131.09,131.09,0,0,1,23.44-10.79,106.52,106.52,0,0,1,12.5-3.34c2.12-.4,4.24-.82,6.39-1.11s4.29-.57,6.44-.84c-2.16.14-4.33.21-6.49.44S265,170.09,262.82,170.39Z"/><path class="cls-3" d="M85.09,138.9c1.1-.17,2.22-.31,3.32-.53l1.65-.36c.55-.13,1.1-.24,1.64-.41a60,60,0,0,0,12.48-5.11c7.93-4.3,15.09-9.76,22.43-14.78,3.68-2.51,7.4-4.93,11.24-7.13a89.18,89.18,0,0,1,11.91-5.72,77.47,77.47,0,0,1,12.62-3.75l3.24-.6,3.27-.43.81-.11.83-.06,1.64-.12,1.64-.13c.55,0,1.1,0,1.65,0,1.1,0,2.2-.08,3.3-.07l3.31.06c1.11,0,2.21.1,3.31.16s2.2.12,3.29.26a73.65,73.65,0,0,1,13,2.38,63.17,63.17,0,0,1,12.23,4.77c1,.5,1.93,1,2.9,1.58s1.89,1.13,2.82,1.71c1.86,1.19,3.7,2.42,5.49,3.73,3.62,2.57,7.12,5.35,10.8,8a78.77,78.77,0,0,0,11.57,7,57.54,57.54,0,0,0,12.8,4.29l1.65.34c.55.11,1.11.17,1.66.25,1.11.16,2.22.35,3.34.43l1.67.14c.56.06,1.12.1,1.68.11l3.35.12-3.34-.32c-.55,0-1.11-.12-1.66-.2l-1.65-.25c-1.11-.13-2.2-.37-3.29-.58-.54-.12-1.09-.2-1.63-.34l-1.62-.41A57.48,57.48,0,0,1,248,127.94a76.61,76.61,0,0,1-11.13-7.2c-3.55-2.68-7-5.51-10.59-8.22a85.15,85.15,0,0,0-11.36-7.4A66,66,0,0,0,202.3,100a73.52,73.52,0,0,0-13.37-2.54c-1.12-.15-2.25-.2-3.38-.28s-2.26-.18-3.39-.18l-3.39-.08c-1.13,0-2.27,0-3.4.06l-1.7.06-1.7.14-1.69.13-.85.07-.85.12-3.37.45-3.35.64a76.7,76.7,0,0,0-13,4A111,111,0,0,0,125.43,116c-3.63,2.62-7.21,5.3-10.8,7.93a130.19,130.19,0,0,1-11.08,7.4,60.92,60.92,0,0,1-12.06,5.54,46.93,46.93,0,0,1-13.11,2.29l3.35,0C82.85,139.08,84,139,85.09,138.9Z"/><path class="cls-3" d="M248.35,160.2h0l.3-.32h0a91.16,91.16,0,0,0,8-9.73h0a4.4,4.4,0,0,0,.77-2h0c0-.05,0-.1,0-.15a4.47,4.47,0,0,0-2.38-4.42,4.39,4.39,0,0,0-1-.38c-.49-.14-1-.28-1.47-.44l-.62-.2-.83-.29-.76-.29-.73-.28-.75-.31q-.41-.16-.81-.36l-.64-.28c-.5-.23-1-.47-1.49-.72l-.51-.26c-.44-.22-.89-.45-1.33-.69l-.63-.35-1.25-.7-.43-.25c-.57-.33-1.14-.66-1.7-1l-.35-.21-1.63-1-.12-.08c-1.93-1.22-3.87-2.5-5.86-3.81-1.57-1-3.16-2.09-4.78-3.13l-.39-.25c-.69-.76-1.37-1.52-2-2.3-1.16-1.38-2.32-2.75-3.47-4.16s-2.36-2.76-3.61-4.11a43.73,43.73,0,0,0-4-3.77,29.07,29.07,0,0,0-4.64-3.06,26.68,26.68,0,0,0-10.55-3,37.55,37.55,0,0,1,9.87,4.16,33.36,33.36,0,0,1,4.25,3.15,46.06,46.06,0,0,1,3.83,3.7c1.24,1.29,2.43,2.65,3.63,4,.8.88,1.6,1.77,2.42,2.65l-1.08-.65-.49-.29-2-1.17-.21-.12q-2.61-1.45-5.4-2.8l-2.55-1.25,0,.09a76.46,76.46,0,0,0-29-6.62A84.82,84.82,0,0,0,132,126.2l0-.08-2.81,1.94-.78.54-.25.18-.73.52-.41.3-1,.71-.63.48-.47.36-.88.68-.17.13-1.09.88-.19.15c-2.34,1.9-4.47,3.77-6.38,5.53l-.11.1-.89.82-.09.09-.68.63-.35.34-.32.29-2,1.94L110.52,144h0c-.26.25-.53.48-.8.72l-.34.29-.49.4-.42.33L108,146l-.47.33-.42.29-.51.33-.41.27-.54.33-.4.22c-.19.12-.39.23-.59.34l-.33.18-.7.36-.35.18-.56.27-.63.29-.32.14-.74.32-.25.11-.67.26-.35.14-.53.2-.52.19-.4.13-.67.23-.31.1-.82.25-.2.07-1.06.3-.12,0a3.74,3.74,0,0,0-2.66,3.28h0v.11a3.84,3.84,0,0,0,0,.48.88.88,0,0,0,0,.16,2.9,2.9,0,0,0,.06.41s0,.08,0,.13a2.77,2.77,0,0,0,.12.41.08.08,0,0,1,0,0,3.71,3.71,0,0,0,1.89,2c1,.48,2,1,3,1.48l.84.43c.72.36,1.43.73,2.14,1.11l1,.52c.8.43,1.6.88,2.4,1.32l.35.2h0c.18.09.35.19.52.29.93.53,1.85,1.06,2.75,1.6,1.52.92,3.22,2,5.18,3.33,12,7.89,32,21.1,64.24,21.1,1,0,2,0,3-.05h.49c.9,0,1.81-.07,2.7-.12l.68,0c.86-.05,1.72-.11,2.57-.18l.7-.07,1.95-.2.88-.1,2.12-.28,1.24-.19c.38,0,.75-.12,1.13-.18.79-.13,1.58-.27,2.35-.42l.55-.1a94.8,94.8,0,0,0,48.27-25.46V163Zm-146.19-.45c-1-.5-1.9-1-2.87-1.49l-.37-.18c-1-.53-2.1-1.05-3.16-1.55a1.08,1.08,0,0,1-.64-1.11,1.1,1.1,0,0,1,.83-1c1-.28,2.19-.63,3.39-1l.3-.11,1.38-.51.5-.2,1-.4.36-.15c0,.1,0,.2,0,.3l0,1.52c0,.14,0,.27,0,.41,0,.61.06,1.23.1,1.84,0,.14,0,.29,0,.43,0,.5.07,1,.11,1.51,0,.16,0,.31,0,.47.06.61.13,1.22.2,1.83,0,0,0,.05,0,.08-.18-.09-.36-.18-.53-.28Zm147.08-15.38,1.07.4.36.12c.34.13.69.24,1,.35l.36.11c.43.14.87.27,1.31.39h0a1.84,1.84,0,0,1,.43.17,1.86,1.86,0,0,1,.86,1,1.81,1.81,0,0,1,.11.72,1.86,1.86,0,0,1-.34,1c-.25.36-.53.74-.82,1.14h0l-.33.45c-1.12,1.5-2.55,3.31-4.31,5.33v0c0-.48,0-1,0-1.46l0-.54c0-.67,0-1.33,0-2s0-1.44,0-2.17l0-.66c0-.52,0-1-.07-1.57,0-.23,0-.46-.05-.69,0-.63-.09-1.25-.15-1.87l0-.31v-.06l.18.07ZM112,165.48c-1.06-.68-2-1.31-3-1.86s-1.82-1.08-2.76-1.62l0-.19c-.11-.75-.21-1.51-.3-2.27l0-.34c-.09-.77-.16-1.54-.22-2.32,0-.09,0-.19,0-.28-.06-.8-.1-1.6-.13-2.4a1.09,1.09,0,0,0,0-.18c0-.83,0-1.67,0-2.51,0-.26,0-.53,0-.79l.47-.27.34-.18.8-.47.22-.13c.35-.21.68-.42,1-.64l.14-.09.82-.56.34-.25.59-.45.37-.28.58-.48.31-.27.86-.77,1.3-1.25,1-1h0c.49-.47,1-1,1.53-1.45l.16-.15.45-.43.22-.2c.54-.5,1.09-1,1.67-1.53l0,0a118.62,118.62,0,0,1,9.28-7.66,45.39,45.39,0,1,0,90.23,7,45.11,45.11,0,0,0-2.33-14.4l.87.47.23.13c1.29.71,2.55,1.43,3.79,2.17l.11.07c3.43,2,6.66,4.18,9.79,6.25,2.53,1.67,5,3.3,7.49,4.83l.33.2,1.47.88.34.2c.57.33,1.14.66,1.71,1l.34.19c.46.25.91.5,1.37.73l.52.27,1.42.7.23.11c0,.3.07.6.1.9s.07.64.1,1,.08.89.11,1.34c0,.3,0,.59.07.89,0,.5,0,1,.07,1.49,0,.25,0,.5,0,.75,0,.75,0,1.49,0,2.23s0,1.24,0,1.86l0,.62c0,.41,0,.83-.05,1.24,0,.24,0,.49,0,.73s-.05.75-.08,1.13l-.06.75-.09.87a92.44,92.44,0,0,1-53.82,27.86l-.24,0q-2.67.39-5.47.64l-.51,0c-.9.07-1.81.14-2.73.19h0c-.91,0-1.83.09-2.76.11l-.66,0c-.93,0-1.87,0-2.82,0-31.43,0-51.06-12.93-62.79-20.66l-.73-.48ZM150.71,120l3.44,3,.13-.15L151,119.91c1.21-.42,2.44-.82,3.71-1.19l1.74,1.91a25.24,25.24,0,0,0-4.15,4.9l.08-.12-5.7-3.86Q148.63,120.73,150.71,120Zm39.1-3.92L188,118.82l.15.11,1.85-2.82c1.29.18,2.56.39,3.79.63l-3.39,4.06a25,25,0,0,0-5-3.64l.13.08.77-1.56Q188.1,115.85,189.81,116.07Zm25.83,23.11c0,.09,0,.18,0,.27l-17.19.33c0-.2,0-.4,0-.6,0-.79,0-1.57-.11-2.35V137l17-2.36A43.48,43.48,0,0,1,215.64,139.18Zm-.27-4.79-17,2.42a25.21,25.21,0,0,0-1.23-5.72l16-6.42a43.12,43.12,0,0,1,1.4,4.71l-16.63,4.48a.83.83,0,0,0,0,.15l16.64-4.44A43.67,43.67,0,0,1,215.37,134.39ZM212.47,123q.3.73.57,1.47l-16,6.5a.14.14,0,0,0,0,.06,28.77,28.77,0,0,0-1.12-2.75l12.69-7C210,121.84,211.24,122.42,212.47,123Zm-4-1.82-12.52,7s0,0,0,.05a23.91,23.91,0,0,0-1.45-2.57l8.83-6.39C205.08,119.85,206.78,120.5,208.44,121.19Zm-5.35-2-8.69,6.33a23.64,23.64,0,0,0-1.74-2.37l0,0,5.78-5.37C200.06,118.22,201.59,118.68,203.09,119.18Zm-5.34,21.28c.22.13.43.27.64.41,0-.31,0-.63.05-.94l17.19-.27a45.2,45.2,0,0,1-.32,4.83L201.06,143l-1.12-.12.14.18,1.09.11,14.11,1.51a44.19,44.19,0,0,1-.89,4.75l-12-2.76-.89-.21,0,.17.88.21,12,2.79a42.36,42.36,0,0,1-1.45,4.6l-10.81-3.91-.84-.3,0,.14.83.3,10.78,4a43.28,43.28,0,0,1-2,4.39l-10.12-5.14-.78-.4c0,.05-.05.1-.08.14h0l.78.4L210.75,159a44.88,44.88,0,0,1-2.47,4.12l-9.73-6.54-.12.12,9.73,6.59a45.15,45.15,0,0,1-2.93,3.8l-9.65-8.35-.16.07,9.67,8.44a43.36,43.36,0,0,1-3.35,3.43l-10-11.06h-.21l10.06,11.21a41.49,41.49,0,0,1-3.74,3l-10-14.2-.12.09L197.68,174a44.84,44.84,0,0,1-4.06,2.57l-8.2-15.35-.13.07,8.15,15.38a43.36,43.36,0,0,1-4.35,2.08l-6.29-16.29a24.87,24.87,0,0,0,6.33-3.74,8.63,8.63,0,0,1-1.61-.75c-4.84-2.82-6-8.59-3.2-13.42S192.92,137.63,197.75,140.46Zm-15.09,22,6.23,16.31a43.88,43.88,0,0,1-4.57,1.56l-4.27-17A25.81,25.81,0,0,0,182.66,162.5Zm-.78-47.1.78,0-.12.37.18.07.16-.43c1.09,0,2.17.12,3.23.21l-.72,1.48a24.33,24.33,0,0,0-4-1.75Zm-2,48,4.21,17a43.5,43.5,0,0,1-4.75,1L177.19,164l-.12,0,2.1,17.44a43,43,0,0,1-4.85.43l0-17.62A24.94,24.94,0,0,0,179.91,163.42Zm-5.8,18.48-1.22,0c-.74,0-1.48,0-2.21-.06l1.25-14.74.26-2.86q.57,0,1.14,0l.83,0ZM172,164.26l-.24,2.85-1.32,14.74a41.39,41.39,0,0,1-4.88-.56L169.24,164l-.11,0-3.73,17.32a42.28,42.28,0,0,1-4.79-1.14l5.74-16.82-.11,0-5.83,16.79a42.89,42.89,0,0,1-4.64-1.73l7.76-16-.1-.05-7.85,16a43.88,43.88,0,0,1-4.42-2.28l9.69-15a24.94,24.94,0,0,0,11.26,3.29Zm-11.23-3.32-.06,0-9.77,15a44.78,44.78,0,0,1-4.13-2.81l11.49-13.73A22.84,22.84,0,0,0,160.81,160.94Zm-14.12,12a43.89,43.89,0,0,1-3.78-3.31L156,157.36a1.14,1.14,0,0,0-.11-.11l-13.13,12.21a41.46,41.46,0,0,1-3.37-3.76l14.52-10.59a25.41,25.41,0,0,0,4.3,4.12Zm-16.54-33.74c0-1.14,0-2.28.14-3.41l18,1.86c0,.51-.05,1-.05,1.55s0,1,.05,1.47l-18.08.29C130.17,140.36,130.15,139.77,130.15,139.18Zm18.12-1.6a.34.34,0,0,0,0-.1l-18-1.92a44.2,44.2,0,0,1,.75-5.14l17.62,4A24.63,24.63,0,0,0,148.27,137.58Zm.38,6.21-17.9,2.49a41.27,41.27,0,0,1-.55-5.13l18.08-.34s0,0,0-.06A25.25,25.25,0,0,0,148.65,143.79Zm-17.87,2.7,17.9-2.55a25.1,25.1,0,0,0,.73,2.9L132,151.49A43.81,43.81,0,0,1,130.78,146.49Zm1.24,5.2,17.44-4.7a24.7,24.7,0,0,0,1.12,2.82l0-.05-16.73,6.73A44.59,44.59,0,0,1,132,151.69Zm1.88,5,16.72-6.79a24,24,0,0,0,1.42,2.59l-15.77,8.71A42.94,42.94,0,0,1,133.9,156.68Zm18.21-4.08a26.9,26.9,0,0,0,1.72,2.4l-14.56,10.54a43,43,0,0,1-2.89-4.17l15.74-8.76Zm.13-27a25.54,25.54,0,0,0-1.51,2.65l-8.83-4.52c1.45-.71,3-1.4,4.51-2Zm-10.58-1.75,9,4.56v0a25.79,25.79,0,0,0-1.15,2.88l-12.87-4.71Q139.05,125.1,141.66,123.81Zm7.81,7.55,0-.1a25.79,25.79,0,0,0-.81,3.05l-17.59-4.1a2,2,0,0,1,.05-.24c1.67-1.14,3.42-2.26,5.27-3.34Zm48.76-13.62-5.66,5.3a24.26,24.26,0,0,0-2.09-2.21l.1.09,3.48-4.13C195.48,117.07,196.87,117.39,198.23,117.74Zm-41.7,2.77h0l-1.66-1.85c1.12-.33,2.26-.63,3.42-.92l.62.88.17-.12-.57-.81c1-.24,2-.46,3-.66A25.46,25.46,0,0,0,156.53,120.51Z"/><path class="cls-3" d="M248.78,142.25c-18.07-8.22-31.4-26.89-64.26-28-39.83-1.34-61.72,19.72-73.25,30.35a29.63,29.63,0,0,1-5.39,3.89c-7.53-3.11-27.72-12.31-39.67-26.19C55.88,110.32,54,94,53.92,93.23c.44,1,14.59,33.89,41.33,39.45,0,0-28.29-15.84-29.79-46.05,0,0,11.68,32.47,36.58,40.4,0,0-27.32-24.41-23.8-47.23,0,0,13.51,32.9,29.46,41.56-.3-.39-9.64-13-13-23.22C90.39,85.27,92,70.71,92,70.71s3.22,15.57,8.51,25.92c4.12,8.08,13.14,18.33,14.08,19.38-.72-.94-6.6-8.92-10.78-24.32-4.47-16.43-1.43-25-1.43-25s2.16,16.61,8.74,28.16A108.62,108.62,0,0,0,124,113.19c-.4-.63-9.11-14.06-10.9-25.58-1.83-11.81,1.07-24,1.07-24s.73,13.18,3.61,22.55,8.14,18.59,12,23.15c-.24-.53-6.71-14.12-7.28-24.6-.56-10.32,3.3-20.88,3.58-21.59a48.9,48.9,0,0,0,1.1,20.15C130,93.33,137.32,106.39,138,107.59c-.52-1-5.44-11-6-21.13A75.68,75.68,0,0,1,134.47,65s.4,14.54,2.55,22.61c1.87,7,10,18.84,10.51,19.57a119.55,119.55,0,0,1-5.89-21.07c-1.77-10.63,2.46-20.38,2.46-20.38s.07,14.22,2.34,22.32a56.29,56.29,0,0,0,8.19,17.38c-.18-.56-4.38-12.81-4.68-19.78-.37-8.37,3.52-19.3,3.52-19.3s-.49,5.27,1.4,19c.74,5.41,8.9,18.21,9.16,18.61a72.8,72.8,0,0,1-3.33-17.67c-.52-9.49,2.72-15.62,2.72-15.62s-.55,9.67,1,15.54c1.45,5.59,6.3,16.31,6.75,17.29A41.54,41.54,0,0,1,169.07,87c.67-9.56,2.78-14.44,2.78-14.44s-.6,10.75,1,17.8c1.53,6.84,6.4,13.5,6.7,13.91a39.35,39.35,0,0,1-3.14-13C176,84.13,178,75.62,178,75.62a68,68,0,0,0,1.1,15.66c1.52,6.78,6.2,13.28,6.57,13.78-.19-.27-1.64-2.63-1.87-8.31s2.71-13.78,2.9-14.31c-.06.55-1.07,8.65.73,15.3s4.32,9.41,4.32,9.41-1.5-3.49-.76-11.87,1.86-9.62,1.86-9.62-.24.62.7,10.67c.53,5.78,4.73,12.59,9.09,15C208.6,114.75,226.94,126.7,248.78,142.25Z"/><path class="cls-2" d="M195.94,157.49a29.67,29.67,0,0,1-11,6.73,30,30,0,0,1-12.75,1.47,29.52,29.52,0,0,1-12.11-4.11l-1.37-.84-1.28-1c-.42-.34-.87-.63-1.26-1L155,157.68a24.76,24.76,0,0,1-2.21-2.36c-.35-.4-.64-.87-1-1.3a12.1,12.1,0,0,1-.89-1.35,24.37,24.37,0,0,1-2.57-5.93,25.52,25.52,0,0,1-.83-6.39,23.41,23.41,0,0,1,3.5-12.2,23.9,23.9,0,0,1,1.86-2.62c.33-.41.71-.79,1.07-1.18a11.06,11.06,0,0,1,1.14-1.13,17.89,17.89,0,0,1,5.42-3.46,18.68,18.68,0,0,1,18.31,2.16,16.29,16.29,0,0,1,4.39,4.63,15.19,15.19,0,0,1,1.58,12.36,15,15,0,0,1-3.14,5.5,12,12,0,0,1-11.57,3.88,11.83,11.83,0,0,1-5.57-2.9,9.56,9.56,0,0,1-3-5.48,9.68,9.68,0,0,1,1-6.14,8.39,8.39,0,0,1,4.68-4,7.51,7.51,0,0,1,6.09.65,7.11,7.11,0,0,1,2.3,2.1,5.94,5.94,0,0,1-1.59,8.28,4.82,4.82,0,0,1-3,.69,4.75,4.75,0,0,1-2.76-1.25,3.79,3.79,0,0,1-1.22-2.73,3.71,3.71,0,0,1,1.13-2.74,3.71,3.71,0,0,0-1.07,2.74,3.63,3.63,0,0,0,1.25,2.63,4.58,4.58,0,0,0,5.52.45,5.62,5.62,0,0,0,2.37-5.11,5.53,5.53,0,0,0-1-2.71,6.81,6.81,0,0,0-2.18-1.92,6.94,6.94,0,0,0-5.65-.48,7.68,7.68,0,0,0-4.22,3.79,8.89,8.89,0,0,0-.82,5.64,8.67,8.67,0,0,0,2.84,4.89,10.74,10.74,0,0,0,15.43-1.15,13.33,13.33,0,0,0,1.12-16,14.41,14.41,0,0,0-4-4A17.09,17.09,0,0,0,172.6,121a16.82,16.82,0,0,0-11.17.82,15.67,15.67,0,0,0-4.7,3.14,9.67,9.67,0,0,0-1,1c-.31.36-.65.7-.94,1.08a22.44,22.44,0,0,0-1.61,2.37,20.81,20.81,0,0,0-2.89,10.9,22.15,22.15,0,0,0,.85,5.61,21.15,21.15,0,0,0,2.35,5.14,9.19,9.19,0,0,0,.8,1.16c.29.37.54.78.86,1.12a21.16,21.16,0,0,0,2,2l1.07,1c.35.32.76.57,1.14.86l1.16.84,1.23.73a25.89,25.89,0,0,0,31.38-4.14Z"/></g></g></svg>