<svg xmlns="http://www.w3.org/2000/svg" viewBox="0 0 512 502.46"><defs><style>.prefix__cls-1{fill:#0192c1}.prefix__cls-4{fill:#8d80e0}.prefix__cls-10{fill:none;stroke:#0192c1;stroke-miterlimit:10}.prefix__cls-11{fill:#cceaf2}</style></defs><g id="prefix__Layer_2" data-name="Layer 2"><g id="prefix__logo"><path class="prefix__cls-1" d="M1 241.62a2.83 2.83 0 01-.5-.13H.22a.3.3 0 01-.18-.25V240.64c.12-1.3.2-2.6.33-3.91 0-.08-.1-.2-.09-.32a.43.43 0 01.1-.23.46.46 0 01.34-.25 1.94 1.94 0 00.24 0c.2 0 .39.12.58.14 5.92.55 11.89 1 17.81 1.59.16 0 .31.11.43.12s.17-.1.25-.13.2 0 .25-.14v-.24c0-.11.06-.27.08-.43.41-4.38.74-8.73 1.14-13.07a2.35 2.35 0 01.21-.46v-.19c.05-.12.1-.23.22-.26h.16s.13-.1.17-.1c1.26.12 2.51.4 3.73.51.12 0 .21-.14.29-.09.24 0 .29.26.27.46a1.94 1.94 0 010 .24c0 .12.06.25.05.37q-.89 9.34-1.76 18.62c0 .2-.15.35-.16.51s-.09.51-.48.47c-.13 0-.23-.1-.31-.11-.48 0-.95-.13-1.42-.17-3.39-.32-6.85-.45-10.24-.77-3.69-.35-7.47-.8-11.23-1.18zM7.86 195.38c-.16 0-.3-.12-.45-.17s-.17 0-.25 0a.48.48 0 01-.14-.37.5.5 0 010-.27v-.37c1.73-6.06 3.44-12.08 5.17-18.14.05-.16.13-.3.17-.45a.44.44 0 01.58-.29.81.81 0 01.31 0c1.15.33 2.24.68 3.39 1h.4c.12 0 .2.3.18.5s.08.19 0 .3-.11.26-.14.37c-1.2 4.2-2.4 8.39-3.6 12.62 0 .12-.12.26-.16.41a2 2 0 01-.07.23.69.69 0 00.12.32h.21c.04 0 .17.13.28.16 1 .27 2 .52 2.91.79l.38.11a.49.49 0 00.43-.21c0-.11 0-.24.06-.35a10.78 10.78 0 00.28-1.12c.6-2.1 1.27-4.17 1.87-6.27v-.36c0-.11.07-.11.09-.18s.21-.15.37-.14a1.14 1.14 0 01.37 0c.38.11.75.25 1.13.36.73.21 1.49.26 2.22.47.08 0 .16.17.27.2s.22-.06.3 0a.57.57 0 01.19.51c0 .08-.12.13-.15.21s.08.31 0 .46c-.67 2.32-1.54 4.67-2.22 7v.45c0 .16 0 .13.07.18s0 .28 0 .34.12 0 .16 0h.37c1.29.37 2.53.8 3.83 1.17a1.23 1.23 0 00.39.07.32.32 0 00.43-.21 1.56 1.56 0 000-.2c.05-.15.13-.29.17-.44 1.2-4.2 2.28-8.42 3.48-12.62a2.18 2.18 0 01.21-.47.47.47 0 01.59-.33 1.62 1.62 0 01.26.12l3.43 1a1.33 1.33 0 01.34.1c.19.06.26.24.24.48v.57c-1.72 6-3.51 12-5.23 18.05 0 .11-.14.2-.19.36s0 .13 0 .16a.36.36 0 01-.45.28c-.08 0-.13-.12-.21-.14a1.42 1.42 0 01-.41 0c-3.7-1.06-7.35-2.14-11-3.18zM37.29 124.46c-.13-.09-.27-.23-.41-.32a.85.85 0 01-.22-.24c-.16-.11-.13-.23 0-.39a.93.93 0 01.13-.34l.76-1.16c1.83-2.79 3.62-5.59 5.43-8.34.15-.23.4-.4.56-.63a7.37 7.37 0 012.36-2.29 7.73 7.73 0 011.84-.92 14 14 0 011.54-.41 7.46 7.46 0 013 .35 7.26 7.26 0 012.46 1.23 7.87 7.87 0 011.63 1.78 3.58 3.58 0 01.29 1c0 .16.12.32.16.48s-.08.19 0 .26.21 0 .3.06.21 0 .34 0a6.5 6.5 0 011-.06 2.54 2.54 0 01.78 0 6.35 6.35 0 011.6.67 8.48 8.48 0 011.13.74c.07.1.24.07.34.13l2.69 1.79c.43.28.83.54 1.28.79a7.93 7.93 0 002 .88h.34a.35.35 0 01.23.43c0 .09-.2.1-.27.2a6.4 6.4 0 01-.38.8c-.61.93-1.29 1.81-1.87 2.7l-.22.34a.54.54 0 01-.52.27c-.14 0-.22-.09-.34-.13a7.07 7.07 0 01-2.09-.85 9.58 9.58 0 01-1.55-1c-.89-.59-1.82-1-2.71-1.64-.13-.09-.29-.14-.42-.23a1.39 1.39 0 00-1-.28 2.22 2.22 0 00-1 .52 4.05 4.05 0 00-.8.86l-.28.43-3.05 4.63a2 2 0 00-.26.4.37.37 0 00.06.42h.14c.03 0 .12 0 .19.07s.17.17.24.21c2.25 1.48 4.53 2.93 6.78 4.41a2.68 2.68 0 01.44.34c.1.06.1.2.17.25a.36.36 0 01.12.32c0 .05-.1.07-.12.11s0 .17-.06.24c-.79 1.19-1.6 2.36-2.39 3.55l-.13.2s-.08 0-.15.09a.3.3 0 01-.33.07c-.07 0-.21 0-.28-.09s-.37-.15-.54-.26l-9.44-6.2c-3.23-2.07-6.35-4.17-9.5-6.24zm8.48-5.76c-.54.83-1.14 1.67-1.71 2.53a2.25 2.25 0 00-.24.36.32.32 0 00.06.42c.07 0 .19.07.26.12 1.16.76 2.26 1.53 3.42 2.3.07 0 .18 0 .24.06s.06.13.09.15a.56.56 0 00.42 0s0-.16.07-.19.1-.22.17-.32c.8-1.23 1.66-2.46 2.47-3.69.28-.43.44-.89.73-1.32a5.36 5.36 0 00.26-.54 2.43 2.43 0 00-.3-2.66 2.93 2.93 0 00-.86-.57 2.51 2.51 0 00-1.89-.44 2.39 2.39 0 00-1.31 1 2.81 2.81 0 00-.4.45c-.52.8-.92 1.63-1.44 2.42zM65.29 86.16c-.12-.11-.2-.25-.32-.36s-.17 0-.22-.11a.49.49 0 010-.39.76.76 0 01.17-.23c.08-.08.11-.22.19-.31l13.12-13.59c.11-.12.25-.2.36-.32a.45.45 0 01.64 0 .73.73 0 01.26.19c.86.82 1.66 1.65 2.51 2.47.09.09.26.14.34.22a.48.48 0 01-.07.54s0 .19-.11.28-.22.17-.3.26l-9.1 9.45c-.08.08-.22.17-.33.29l-.16.17a.64.64 0 000 .33c.06.06.17.06.2.08s.08.2.17.28c.71.69 1.48 1.37 2.2 2.06l.28.28a.48.48 0 00.48 0c.08-.08.14-.19.22-.28.27-.23.49-.57.77-.85 1.51-1.58 3.08-3.09 4.59-4.66.08-.09.11-.23.19-.31s.11-.06.16-.12.26 0 .4 0a1.23 1.23 0 01.31.19c.29.27.54.58.83.85.54.52 1.19.93 1.74 1.45 0 .06.06.23.14.31s.23 0 .29.11a.55.55 0 01-.08.53c0 .06-.17.06-.22.12s-.08.31-.19.42c-1.75 1.82-3.6 3.49-5.3 5.26-.11.11-.14.25-.25.37s0 .14 0 .19-.17.23-.14.31a1.09 1.09 0 00.15.08c.08.09.22.11.31.19 1 .94 1.86 1.9 2.83 2.84a1.23 1.23 0 00.31.24.32.32 0 00.48 0c0-.05.08-.14.11-.17s.24-.2.35-.31c3-3.14 6-6.37 9-9.51a2.64 2.64 0 01.4-.3.46.46 0 01.67 0c.09.08.12.17.18.22l2.57 2.48c.08.08.2.13.25.24s.12.34 0 .54c0 0-.06.11-.09.14s-.13.25-.21.34c-4.35 4.51-8.74 9-13.09 13.48-.08.09-.22.12-.33.23s0 .14-.08.14a.36.36 0 01-.53 0c-.06-.05-.06-.17-.12-.22a2.15 2.15 0 01-.37-.19c-2.77-2.67-5.48-5.33-8.22-8zM131 59c.09.13.12.3.21.43a.53.53 0 010 .56c-.08.1-.07.25-.15.35a26.21 26.21 0 01-2.4 2.66c-.51.51-1.14.85-1.64 1.31a29.53 29.53 0 01-3 2.18 16.5 16.5 0 01-4.41 2.14 14 14 0 01-3.36.39 10.14 10.14 0 01-2.9-.39 11.75 11.75 0 01-1.78-.39 13.7 13.7 0 01-1.9-1.18 12.52 12.52 0 01-2-1.53 16.5 16.5 0 01-1.43-1.47 21.6 21.6 0 01-1.08-2 12.64 12.64 0 01-.92-1.92 12 12 0 01-.7-3.87 14 14 0 01.19-1.45 8.9 8.9 0 01.35-2c.12-.38.26-.81.44-1.23a11.91 11.91 0 011.32-2.19 16.8 16.8 0 012.54-3.06 26.2 26.2 0 012.39-1.84c.67-.42 1.36-.76 2-1.13a19.72 19.72 0 012.36-1.33 23.67 23.67 0 012.34-.87 1.27 1.27 0 01.32 0c.24-.08.36 0 .53.2s.22 0 .27.1c.69 1 1.32 1.94 2 2.91a.89.89 0 01.14.33c.09.13 0 .31-.15.4s-.08 0-.11 0-.11.12-.14.14a15 15 0 00-2.24.81c-.81.37-1.5.91-2.31 1.34s-2 1.14-2.87 1.78a13.44 13.44 0 00-2.1 1.83 8.54 8.54 0 00-1.15 1.73 6 6 0 00-.73 3.23 7.83 7.83 0 00.67 2.54 11.14 11.14 0 00.89 1.8 11.74 11.74 0 001.37 1.46 7.09 7.09 0 002.93 1.81 6.43 6.43 0 003 .12 12.43 12.43 0 002.33-.67c.56-.31 1.09-.73 1.61-1.09s1.15-.71 1.73-1.13l.81-.57a.51.51 0 000-.7l-.13-.2c-.76-1.07-1.59-2-2.34-3.1-.05-.07-.05-.21-.1-.27s0-.18-.08-.19a.75.75 0 00-.33-.06l-.23.17c-.26.18-.5.31-.76.49l-1.4 1c-.09.07-.1.27-.19.28s-.37 0-.54-.15-.18-.11-.25-.21a7.71 7.71 0 01-.52-.75c-.32-.45-.65-.85-1-1.27-.09-.13-.06-.29-.12-.45s-.12-.3 0-.45a.83.83 0 00.18-.08c.1-.07.21-.19.3-.26 2-1.44 4.13-2.82 6.17-4.26a3.65 3.65 0 01.45-.32c.26-.18.39-.13.55.1a1.93 1.93 0 01.4.35c1.07 1.52 2.18 3 3.25 4.54zM167.71 42h-.16a.57.57 0 01-.6 0c-.09-.09-.13-.29-.22-.38s-.46-.44-.7-.69-.45-.53-.69-.77c-.46-.44-.94-.84-1.37-1.3-.24-.24-.53-.41-.77-.65 0-.07 0-.18-.06-.23a.46.46 0 00-.41 0h-.11c-2.49 1.12-5 2.17-7.48 3.27-.07 0-.07.12-.14.16s-.23.18-.21.31.09.3.1.43c0 .72.12 1.42.18 2.13.07.54 0 1.07 0 1.6v.89c0 .3.1.3.13.47a.54.54 0 01-.36.46l-.11.05c-1.41.63-2.81 1.39-4.22 2h-.28c-.09 0-.32.05-.38-.09s.13-.19.13-.28l-.21-2.51c0-.46-.07-.93-.11-1.39a12.81 12.81 0 00-.1-1.39 6.6 6.6 0 00-.14-.89c0-.46.06-.94 0-1.4s-.08-1.05-.1-1.56c0-.77-.2-1.52-.22-2.25v-1.58c0-.25-.09-.48-.12-.73v-1.44c0-.28 0-.6-.07-.92s-.1-.91-.14-1.37-.08-1-.13-1.55v-2.29c-.06-.5-.16-1-.21-1.52 0-.25.08-.51 0-.76 0-.46-.08-1-.12-1.42v-.7-.19a.35.35 0 01.17-.29c.11-.05.19-.17.3-.22l4.15-1.87a.83.83 0 01.33-.06c.16 0 .32-.05.4 0s.23.42.39.57.58.43.82.67.51.64.8.9.61.51.87.78.52.59.79.9c.48.49 1 1 1.52 1.45.34.37.65.76 1 1.07s.77.74 1.15 1.1.54.53.85.83a10.67 10.67 0 00.84.8c.27.31.49.6.79.9s.55.54.84.8c.49.52 1.06.91 1.55 1.43.34.37.67.7 1 1s.73.76 1.11 1.11a8.86 8.86 0 00.76.92c.25.28.64.45.89.73s.56.57.85.84.51.64.76.91a5.26 5.26 0 01.62.51.7.7 0 01.17.27c.05.11 0 .21-.12.32s-.08.12-.15.15l-2.21 1c-.42.46-1.15.66-1.84.96zm-8.87-7.75c.08 0 .16 0 .22-.09s0-.18-.08-.27 0-.18 0-.2-.21-.17-.29-.26c-.34-.37-.63-.72-1-1.09a7.84 7.84 0 01-.73-.67c-.31-.29-.69-.56-1-.85s-.24-.46-.41-.64a4 4 0 01-.6-.56 5.18 5.18 0 01-.65-.67s-.06-.14-.17-.18-.16 0-.2.13-.09.18-.06.25.12.47.13.68.1.61.1.91v1.68c0 .53 0 .77.06 1.11.08.75.21 1.51.28 2.26 0 .05-.06.16 0 .19a.25.25 0 00.28.14c.07 0 .05-.16.13-.19.65-.29 1.35-.56 2-.86s1.34-.51 1.99-.81zM187.22 10.21c0-.16-.05-.36-.08-.51a.91.91 0 010-.33c0-.19.06-.26.25-.3a1 1 0 01.33-.16l1.35-.32c3.24-.77 6.47-1.58 9.67-2.34.28-.06.57 0 .84-.07a7.31 7.31 0 013.29 0 7.89 7.89 0 012 .59 15.93 15.93 0 011.4.77 7.45 7.45 0 011.93 2.31 7.14 7.14 0 011 2.58 7.49 7.49 0 010 2.41 3.13 3.13 0 01-.47.93c-.09.14-.13.31-.22.46s-.18.08-.2.17.12.17.18.24.12.17.26.22a6.44 6.44 0 01.76.64 2.21 2.21 0 01.49.5 6.76 6.76 0 01.7 1.59 7.1 7.1 0 01.31 1.31c0 .12.13.21.16.33.25 1 .5 2.12.75 3.16.12.5.23 1 .39 1.46a7.88 7.88 0 00.84 2c0 .07.19.11.25.22a.35.35 0 01-.13.48c-.06.06-.22-.07-.33 0a5.6 5.6 0 01-.82.31c-1.08.26-2.18.44-3.22.69l-.39.09a.55.55 0 01-.56-.15c-.11-.1-.1-.22-.16-.33a7 7 0 01-.94-2.06 9.8 9.8 0 01-.46-1.77c-.25-1-.6-2-.85-3.05 0-.16-.11-.3-.15-.46a1.46 1.46 0 00-.53-.89 2.27 2.27 0 00-1.1-.31 4.08 4.08 0 00-1.16.07l-.5.12-5.4 1.28a2.21 2.21 0 00-.46.11.38.38 0 00-.25.35s.1.05.11.09.06.11.08.19 0 .24 0 .31c.62 2.63 1.28 5.24 1.9 7.86a2.41 2.41 0 01.09.55c0 .12-.07.22-.05.3s0 .25-.13.32-.13 0-.16 0-.14.12-.22.14c-1.39.33-2.78.62-4.17.95l-.23.05h-.18a.28.28 0 01-.28-.18c0-.07-.13-.17-.14-.25s-.17-.37-.22-.56l-2.61-11c-.86-3.77-1.69-7.45-2.56-11.11zm10.12 1.63c-1 .23-2 .43-3 .67a1.23 1.23 0 00-.42.1.31.31 0 00-.25.34c0 .08.09.18.11.26.32 1.35.59 2.67.91 4 0 .08.11.14.13.21s-.05.14 0 .18a.58.58 0 00.34.24l.19-.08a3.4 3.4 0 01.34-.12c1.42-.34 2.9-.65 4.32-1 .51-.12.94-.34 1.44-.46A2.72 2.72 0 00202 16a2.42 2.42 0 001.61-2.13 2.81 2.81 0 00-.23-1 2.56 2.56 0 00-1.08-1.62 2.34 2.34 0 00-1.63-.19 3.93 3.93 0 00-.6.06c-.92.22-1.78.55-2.71.77zM234 1.53c0-.16.07-.32.06-.48S234 .89 234 .81a.39.39 0 01.26-.24c.08 0 .16 0 .28-.06s.24 0 .35 0c3.33-.13 6.66-.22 10-.35.59 0 1.22-.13 1.78-.11a14.91 14.91 0 014.16.75 13.57 13.57 0 013.52 2 12 12 0 012.78 2.9 11.49 11.49 0 011.3 2.93 12.47 12.47 0 01.57 2.36 9.39 9.39 0 010 1.5 12.2 12.2 0 01-1 5.32 14.81 14.81 0 01-1.21 2.19 12.18 12.18 0 01-1.63 1.81 12.75 12.75 0 01-2.25 1.39 13.06 13.06 0 01-2.91 1.19 16.73 16.73 0 01-2 .43c-.48.06-.91.16-1.35.18h-.95c-3.28.13-6.57.3-9.86.43-.12 0-.28-.07-.4-.07h-.24c-.08 0-.28-.07-.32-.22a2 2 0 01-.05-.24v-.48c-.15-3.8-.26-7.64-.41-11.45s-.26-7.6-.42-11.44zm6.38 17.92c0 .16-.11.28-.1.44s.25.31.48.34.28 0 .4 0l4.4-.17c.51 0 1-.08 1.54-.14a7.55 7.55 0 002.59-.74 5.94 5.94 0 002.3-2.07 6.56 6.56 0 001.1-2.34 9.24 9.24 0 00.39-2.32c0-.4-.12-.79-.17-1.18a7.81 7.81 0 00-.91-2.86 5.93 5.93 0 00-1.65-1.8 6.62 6.62 0 00-2.6-1.41 9.87 9.87 0 00-2.15-.13c-.24 0-.48.09-.71.1l-4.76.19c-.12 0-.24-.07-.32-.07h-.24a.29.29 0 00-.15.21V6.09c.08 2.22.25 4.44.33 6.61s.15 4.53.24 6.75zM315.06 7.47c0-.16.16-.29.21-.44s0-.17 0-.25a.4.4 0 01.33-.15 1.86 1.86 0 01.28 0c.11 0 .24 0 .35.06 3.2.91 6.39 1.87 9.59 2.79.57.16 1.2.26 1.73.45a14.66 14.66 0 013.71 2A13.1 13.1 0 01334 15a11.89 11.89 0 011.72 3.63 11.66 11.66 0 01.33 3.18 12.89 12.89 0 01-.2 2.42 10.36 10.36 0 01-.49 1.42 12.19 12.19 0 01-2.6 4.74 15.46 15.46 0 01-1.83 1.79 12.3 12.3 0 01-2.12 1.2 13.58 13.58 0 01-2.57.63 13.36 13.36 0 01-3.15.2 16.48 16.48 0 01-2-.2c-.47-.09-.91-.14-1.33-.26l-.91-.26c-3.16-.91-6.34-1.78-9.5-2.68-.11 0-.24-.16-.36-.19s-.15 0-.23-.06-.24-.16-.23-.32 0-.16 0-.24.13-.29.17-.45c1.05-3.65 2.15-7.34 3.2-11zm.44 19c0 .15-.19.23-.23.38s.14.37.36.48.25.11.37.15l4.22 1.21c.5.14 1 .25 1.51.35a7.61 7.61 0 002.69.11 6 6 0 002.83-1.25A6.67 6.67 0 00329 26a8.79 8.79 0 001.12-2 11.49 11.49 0 00.22-1.17 7.78 7.78 0 000-3 5.88 5.88 0 00-1-2.23 6.61 6.61 0 00-2-2.15 10.06 10.06 0 00-2-.83c-.23-.06-.48-.05-.71-.12L320 13.14c-.11 0-.21-.14-.28-.16s-.14-.09-.23-.07a.27.27 0 00-.21.15c-.05 0 0 .11-.05.19s-.12.25-.15.37c-.61 2.13-1.15 4.29-1.75 6.38s-1.22 4.34-1.83 6.48zM363.76 24.44c.07-.14.18-.27.25-.41s0-.17 0-.25a.52.52 0 01.39-.06.58.58 0 01.26.09c.11.05.25 0 .36.09l16.78 8.63c.14.07.26.18.4.25a.45.45 0 01.17.63.82.82 0 01-.1.3c-.55 1-1.11 2.06-1.65 3.12-.06.1-.06.28-.11.39a.52.52 0 01-.54.08h-.3c-.11 0-.23-.17-.33-.22l-11.67-6c-.11 0-.23-.16-.37-.23l-.21-.11c-.09 0-.27 0-.34.05s0 .17 0 .21-.16.14-.22.24c-.45.89-.89 1.82-1.34 2.7l-.18.35a.5.5 0 00.12.47c.1 0 .23.07.33.12a11.18 11.18 0 001 .49c1.94 1 3.85 2.07 5.79 3.07.1 0 .24 0 .35.09s.09.09.16.13.1.23.06.39a1.06 1.06 0 01-.09.35c-.18.35-.4.69-.58 1-.34.67-.55 1.41-.89 2.08 0 .07-.2.12-.25.23s0 .23 0 .3a.54.54 0 01-.53.08c-.08 0-.11-.14-.18-.18s-.32 0-.46 0c-2.15-1.11-4.28-2.43-6.47-3.55-.14-.08-.28-.06-.42-.13s-.14 0-.2 0-.26-.09-.33 0 0 .13 0 .16 0 .25-.09.35c-.62 1.2-1.29 2.33-1.9 3.53a1.2 1.2 0 00-.15.37.32.32 0 00.12.46 1.83 1.83 0 00.19.06c.14.07.27.18.41.25 3.88 2 7.81 3.88 11.69 5.88a2 2 0 01.42.3.46.46 0 01.2.64 1.77 1.77 0 01-.16.23l-1.63 3.17a1 1 0 01-.16.32c-.09.18-.29.21-.52.14h-.16c-.04 0-.28-.06-.39-.11-5.57-2.86-11.1-5.8-16.67-8.66-.11-.06-.18-.18-.32-.25s-.14 0-.16 0a.37.37 0 01-.19-.5c0-.07.15-.11.18-.18a1.29 1.29 0 01.08-.4c1.76-3.42 3.53-6.79 5.27-10.17zM427.3 66.59a2.22 2.22 0 01.42-.32c.08-.08.11-.17.16-.22a.31.31 0 01.31 0c.09 0 .09.09.14.14l.29.28c.93.91 1.9 1.8 2.83 2.71.06.06.23.06.31.14a.52.52 0 01.12.22.45.45 0 010 .42c-.05.06-.08.14-.13.2s-.34.23-.48.37c-4.15 4.25-8.28 8.59-12.43 12.84-.11.12-.28.17-.36.26s0 .2-.06.28-.11.17-.05.28l.17.17c.09.08.17.22.28.33 3.15 3.08 6.33 6.07 9.44 9.11.12.11.15.31.23.45l.15.14c.05.11.11.22.06.33l-.12.12v.19c-.89.91-1.89 1.71-2.75 2.59-.08.08 0 .25-.1.28s-.4.06-.54-.08-.14-.08-.2-.14-.22-.11-.31-.19l-13.43-13.06c-.14-.13-.17-.33-.28-.44s-.35-.39-.07-.67c.06-.12.22-.12.28-.18.33-.34.69-.65 1-1 2.38-2.44 4.65-5 7-7.48 2.72-2.66 5.46-5.35 8.12-8.07zM461.7 103.45a1 1 0 01.16.28.43.43 0 01.11.21.3.3 0 01-.07.31 1.05 1.05 0 01-.31.18c-.45.19-.93.21-1.38.4-1.35.52-2.6 1.23-3.89 1.76-.36.12-.74.21-1.1.33-.08 0-.18.09-.27.1a.53.53 0 01-.5-.07c0-.06 0-.17-.08-.24-.43-.56-1-1.09-1.43-1.69a.73.73 0 01-.07-.3.33.33 0 01.14-.4c.06 0 .18-.09.24-.14 1.08-.61 2.15-1.17 3.19-1.76.77-.44 1.44-1 2.2-1.43.1-.07.29 0 .44-.08a.81.81 0 00.13-.15c.18 0 .33-.09.46 0s.09.32.19.45c.26.35.63.57.89.91.05.07.1.08.15.14.29.39.51.82.8 1.19zM463.1 152.67a.45.45 0 010-.16.55.55 0 01-.06-.6c.09-.09.28-.15.37-.25s.41-.49.63-.74.5-.5.72-.75c.41-.49.77-1 1.2-1.46.22-.25.37-.56.6-.81.07 0 .17 0 .22-.08a.46.46 0 000-.41l-.06-.1c-1.29-2.41-2.52-4.86-3.8-7.23 0-.07-.12-.07-.16-.14s-.2-.2-.33-.18-.3.11-.42.14c-.72.07-1.41.22-2.12.33-.53.1-1.06 0-1.59.13-.3 0-.58.09-.88.12s-.3.11-.46.15a.54.54 0 01-.49-.32s0-.07-.05-.1c-.74-1.36-1.59-2.7-2.33-4.06v-.29c0-.09-.08-.31.06-.39s.2.12.29.12l2.49-.4 1.37-.2c.48 0 .92-.13 1.38-.2a6.27 6.27 0 00.88-.21c.46-.06.94 0 1.4-.07s1-.16 1.55-.21c.76-.09 1.5-.31 2.23-.39.54-.07 1.06 0 1.57-.08.25 0 .48-.12.72-.17.46-.06.93 0 1.44-.09.28-.06.6-.06.92-.14s.9-.16 1.35-.23 1.05-.16 1.54-.24c.76-.1 1.52-.1 2.28-.2.5-.08 1-.22 1.5-.31h.76c.46-.07.95-.16 1.41-.22a6 6 0 01.69-.06h.2a.37.37 0 01.31.15c.05.1.18.17.23.28.72 1.32 1.45 2.68 2.17 4a1 1 0 01.08.32c0 .15.08.31 0 .4s-.4.26-.54.43a9 9 0 01-.61.87c-.27.33-.6.55-.84.86s-.46.65-.72.92a11.41 11.41 0 01-.84.86c-.44.51-.91 1.08-1.33 1.62a14.22 14.22 0 00-1 1.08c-.38.38-.68.82-1 1.22s-.5.58-.77.91a10.91 10.91 0 00-.74.89c-.29.29-.56.53-.84.86s-.49.58-.73.89c-.48.53-.84 1.12-1.32 1.65-.34.37-.65.71-1 1.11s-.7.79-1 1.19a8.56 8.56 0 00-.87.82c-.25.27-.4.67-.66.94s-.53.6-.77.91-.6.55-.86.83a6.29 6.29 0 01-.46.65.92.92 0 01-.26.19c-.1.05-.21 0-.32-.1s-.13-.07-.17-.14c-.37-.7-.75-1.39-1.14-2.13-.41-.6-.67-1.32-1.02-1.98zm7.09-9.41c0 .07 0 .16.11.21s.18 0 .26-.09.18 0 .2-.06.15-.22.24-.31c.34-.37.67-.68 1-1a6.85 6.85 0 01.62-.78c.27-.33.51-.73.78-1.06.17-.18.43-.27.61-.46a4.14 4.14 0 01.51-.63 5 5 0 01.62-.7c0-.05.14-.07.17-.18s0-.16-.15-.19-.18-.08-.25-.05-.46.16-.67.18-.6.15-.9.17c-.55.07-1.15 0-1.68.14s-.76.1-1.09.14c-.74.13-1.5.32-2.24.44a.81.81 0 00-.2 0 .27.27 0 00-.11.29c0 .07.16.05.2.12.33.63.66 1.31 1 1.94s.63 1.26.97 1.88zm19.38-11.06c.08.13.22.24.3.38a1 1 0 010 .58c-.09.18 0 .41-.07.62s-.25.54-.37.83c-.29 1-.72 1.92-1 2.85-.1.32-.12.7-.22 1 0 .11-.13.16-.17.27s-.2.11-.31 0a.2.2 0 01-.13-.06c-.06-.11-.09-.18-.15-.28-.41-.77-.88-1.47-1.29-2.23 0-.07.06-.22 0-.29a.89.89 0 01-.2-.7 9.68 9.68 0 01.36-.92c.14-.57.21-1.19.35-1.76 0-.15.1-.24.1-.33s-.09-.17-.2-.2-.13-.16-.22-.16c-.5-.18-1-.41-1.49-.59s-.73-.28-1.11-.39c-.07-.05-.21 0-.28 0a.68.68 0 01-.28-.34c-.06-.11-.17-.14-.22-.25-.4-.73-.74-1.53-1.14-2.27-.05-.1-.14-.19-.2-.29s0-.11 0-.2a.14.14 0 01.14-.16 1.25 1.25 0 01.19 0c.25 0 .52 0 .77.08s.63.25.93.31c.81.24 1.59.45 2.38.65.41.1.84.23 1.25.32a1.08 1.08 0 01.91.68c.2.39.39.82.6 1.21.06.1 0 .21.08.32a14.58 14.58 0 01.69 1.32zM481.88 200.86l-.49.15c-.08 0-.14.08-.22.1a.48.48 0 01-.37-.13c0-.08.07-.19 0-.26s-.2-.15-.24-.26c-.39-1.29-.69-2.57-1.07-3.82a1.36 1.36 0 01-.07-.35v-.17a.33.33 0 01.15-.33c.06-.06.11-.16.19-.18s.31-.06.43-.09c2.62-.79 5.21-1.53 7.83-2.32.22-.07.38-.24.61-.31h.21c.08 0 0-.13 0-.17s-.08-.14-.12-.13c-.22-.05-.43.09-.64.07-2.5-.19-5-.48-7.46-.69-.67 0-1.32-.13-2-.19a2.16 2.16 0 01-.3 0c-.17 0-.22-.19-.3-.33s-.15-.2-.19-.35c-.18-.57-.36-1.18-.54-1.79s-.56-1.44-.78-2.16c0-.12.08-.28 0-.43a.34.34 0 01.12-.41c.09-.11.21-.14.3-.25.47-.35.85-.88 1.31-1.27 1.75-1.36 3.5-2.67 5.25-4 .33-.26.61-.56.91-.81a1 1 0 00.26-.25c.06-.06.21-.1.15-.17a.25.25 0 00-.22-.05c-.12 0-.21.14-.32.18l-.42.12c-2.58.78-5.2 1.41-7.82 2.2-.12 0-.25.16-.4.2s-.17 0-.21 0a.26.26 0 01-.3-.16.47.47 0 01-.15-.24c-.08-.26-.28-.5-.36-.76-.32-1.06-.53-2.16-.84-3.19a3.28 3.28 0 00-.15-.36c0-.08.08-.15.1-.24s0-.12.1-.2.06-.22.13-.24.34 0 .46 0c7.4-2.23 14.75-4.49 22.11-6.71.15-.05.32-.06.51-.12s.41 0 .49.27a1 1 0 01.1.34c.43 1.28.78 2.58 1.17 3.87 0 .11.11.22.14.33a.61.61 0 01-.18.64c-.1.07-.15.17-.26.24-2.4 1.92-4.87 3.75-7.31 5.69-1.2.94-2.35 2-3.55 2.89-1 .79-1.92 1.61-2.89 2.36-.13.13-.29.13-.37.28s0 .18 0 .2.1-.07.14-.08.2.14.33.15.52-.08.82 0c2.37.19 4.72.43 7.1.63 1.58.14 3.14.37 4.75.51l4.85.4h.46c.18 0 .25.13.34.31s.22.18.26.29c.4 1.33.73 2.72 1.1 4.06 0 .11.15.24.2.39s-.21.27-.35.36-.14.08-.22.1-.29.13-.44.18c-3.64 1.1-7.3 2.16-10.94 3.26s-7.25 2.1-10.89 3.2zM509.06 221.77h.47c.15 0 .15-.1.23-.1s.22.17.27.29a.64.64 0 01.07.27c0 .12.1.23.11.35.59 6.27 1.19 12.51 1.78 18.78v.48a.45.45 0 01-.43.48.92.92 0 01-.31.07c-1.19.11-2.34.18-3.52.3-.12 0-.27.1-.39.11s-.3-.21-.35-.4-.14-.15-.15-.27 0-.28 0-.4c-.41-4.34-.82-8.68-1.24-13.06v-.44a1.79 1.79 0 010-.23c0-.08-.15-.23-.23-.26s-.15.09-.19.1a2.16 2.16 0 00-.32-.05c-1 .09-2 .23-3 .32h-.39a.49.49 0 00-.33.35c0 .12.07.23.08.35a9.66 9.66 0 00.15 1.14c.2 2.17.33 4.35.54 6.52 0 .12.1.23.11.35s0 .12 0 .2-.14.21-.3.27a1 1 0 01-.34.11c-.4 0-.8 0-1.19.07-.75.07-1.49.3-2.24.37-.07 0-.2-.1-.32-.08s-.19.13-.27.14-.3-.21-.35-.4.06-.17 0-.25-.18-.26-.2-.42c-.23-2.4-.27-4.91-.5-7.36 0-.15-.1-.26-.12-.42s-.09-.11-.13-.15-.07-.27-.15-.3-.11.05-.15.05-.23.1-.35.11c-1.34.13-2.65.18-4 .3a1.42 1.42 0 00-.4.08.32.32 0 00-.32.35 1.08 1.08 0 00.06.19v.48c.42 4.34 1 8.67 1.36 13a3 3 0 010 .52.45.45 0 01-.43.52h-.28l-3.55.34a1.1 1.1 0 01-.36 0c-.19 0-.33-.13-.39-.36 0 0-.05-.12-.05-.15s-.11-.27-.12-.39c-.59-6.24-1.11-12.48-1.7-18.72a3.58 3.58 0 000-.4s-.09-.11 0-.15a.36.36 0 01.32-.43c.07 0 .16.06.24.06a1.4 1.4 0 01.38-.16c3.83-.36 7.62-.68 11.41-1z"/><circle cx="250.6" cy="495.47" r="6.99" fill="#89e080"/><circle cx="397.15" cy="450.43" r="6.99" fill="#e0bb80"/><circle class="prefix__cls-4" cx="488.03" cy="326.95" r="6.99"/><circle class="prefix__cls-4" cx="23.91" cy="328.62" r="6.99"/><circle cx="115.68" cy="451.44" r="6.99" fill="#80ade0"/><circle cx="327.5" cy="484.74" r="6.99" fill="#e0d880"/><circle cx="452.52" cy="396" r="6.99" fill="#e08080"/><circle cx="59.91" cy="397.41" r="6.99" fill="#db80e0"/><circle cx="185.57" cy="485.25" r="6.99" fill="#80c8e0"/><path class="prefix__cls-10" transform="rotate(-22.48 201.31 115.903)" d="M200.94 103.3h.75v25.2h-.75z"/><path class="prefix__cls-10" d="M152.72 179.52L129 163.69l-.42.63 23.55 15.74zM81 249.01h7.49v.75H81z"/><path class="prefix__cls-10" transform="rotate(-56.24 119.214 157.577)" d="M118.83 153.32h.75v8.52h-.75z"/><path class="prefix__cls-10" d="M119.83 249H97.22v.75h22.58z"/><path class="prefix__cls-10" transform="rotate(-39.38 377.952 149.768)" d="M374.68 149.4h6.62v.75h-6.62z"/><path class="prefix__cls-10" d="M214 145.65l-4.73-11.43-.7.29 4.7 11.34zM351.66 171.86l18.53-15.19-.48-.58-18.65 15.29z"/><path class="prefix__cls-10" transform="rotate(-73.14 298.032 112.707)" d="M293.88 112.33h8.3v.75h-8.3z"/><path class="prefix__cls-10" d="M289.14 143.31l5.17-17-.72-.22-5.19 17.11zM301.87 359.87l6.85 16.54.69-.29-6.81-16.46z"/><path class="prefix__cls-10" transform="rotate(-56.24 385.442 335.537)" d="M385.06 329.66h.75v11.75h-.75z"/><path class="prefix__cls-10" d="M364.88 322.24l10.35 6.92.41-.63-10.24-6.85zM393.32 249.76h8.36V249h-8.4c.01.26.03.51.04.76zM409.79 249.01H431v.75h-21.21zM156.91 330.63l-12.47 10.23.47.59 12.57-10.31z"/><path class="prefix__cls-10" transform="rotate(-39.33 134.497 349.538)" d="M127.49 349.14h13.99v.75h-13.99z"/><path class="prefix__cls-10" transform="rotate(-22.48 314.235 388.737)" d="M313.85 380.64h.75v16.19h-.75z"/><path class="prefix__cls-10" transform="rotate(-73.09 211.661 397.262)" d="M202.31 396.9h18.74v.75h-18.74z"/><path class="prefix__cls-10" d="M221.83 362.55l-5 16.59.72.22 5.05-16.65z"/><path class="prefix__cls-11" d="M379.36 248.94c-5.91-.94-13.74-8.21-20.65-14.63-1.76-1.63-3.43-3.18-5.06-4.63 3.7-4.24 7.15-10.3 9.46-14.81a4.6 4.6 0 00-2.51-6.42l-2.37-.92a83.27 83.27 0 00-14.06-4.41 35.28 35.28 0 00-9.35-.76 30 30 0 00-1.57-7.2 34.84 34.84 0 010-22.42l2.25-5.63-4.39 4.18c-6.11 5.82-9.62 6.37-16.61 7.48-3.09.49-6.94 1.1-11.88 2.33a58.61 58.61 0 00-7.37 2.36c.45-2.13.89-4.36 1.07-5.76.22-1.81.57-3.86.82-5.26a3.7 3.7 0 00-3.26-4.33l-1.22-.13c-3.66-.41-8.69-1-13 .36a18.44 18.44 0 00-4.46 2.08c-.55-.61-1.12-1.2-1.73-1.77a144.64 144.64 0 01-14.83-16.57l-1.28-1.74-1 1.93c-1.1 2.19-3.5 4.49-6.54 7.41a105.06 105.06 0 00-8.72 9.08 18.21 18.21 0 00-1.87 2.78 18.61 18.61 0 00-2.65-1.78c-4-2.14-10.9-1.81-16-1.17a3.78 3.78 0 00-2.84 1.93 3.87 3.87 0 00-.11 3.49 17.79 17.79 0 011.6 6.26c0 .78.13 1.59.23 2.4a56.2 56.2 0 00-6.14-1.58 117.45 117.45 0 01-28.28-10l-2.81-1.5.92 3c2.66 8.77.44 14.32-1.7 19.7-1.28 3.19-2.59 6.48-2.76 10.26v1.24a47.13 47.13 0 00-16.69 1.56c-3 .88-5.83 1.85-8.46 2.9a4.59 4.59 0 00-2.54 2.52 4.67 4.67 0 00.07 3.63c.21.47.43 1 .66 1.56a54.56 54.56 0 003.79 7.66 45.93 45.93 0 005.46 6.95c-.89.88-1.79 1.86-2.71 3-8.45 10.15-24.35 15.4-24.51 15.45l-4.92 1.6 5.09 1c13.57 2.55 15.36 8.59 17.63 16.24 1.27 4.3 2.72 9.18 6.47 13.91a27.91 27.91 0 0013.46 9 112.52 112.52 0 01-6.79 11.46 3.69 3.69 0 00-.46 3.53A3.76 3.76 0 00167 308a127.69 127.69 0 0016.8 2.49c.64 12 8.81 27.44 9.16 28.1l.65 1.22 1.19-.7c.07 0 6.44-3.79 13.55-7.77a36.79 36.79 0 007.33 17 5.28 5.28 0 006.57 1.35c3.44-1.81 9.53-5.7 13.45-12.05 2.38 2.2 4.51 3.95 5.62 4.86 4.74 3.87 15.22 14.34 15.33 14.45l1 1 .93-1a120.67 120.67 0 0120-16.1 25.36 25.36 0 003.15-2.39A72.73 72.73 0 00292.72 349a4.68 4.68 0 002.88 1 5 5 0 00.67-.05 4.66 4.66 0 003.13-1.95 56.56 56.56 0 008.44-15.89c7 3.3 13.38 6.5 13.44 6.53l1.29.64.38-1h.25v-.55a79.92 79.92 0 014.53-9c2.68-4.77 5.21-9.28 6.06-14.94a25.26 25.26 0 00.24-2.84 82 82 0 0013.42-3 4.36 4.36 0 002.78-5.77 50.36 50.36 0 00-5.9-11.2 39.4 39.4 0 0020.25-23.23 25.52 25.52 0 0115-16.33l5.45-1.67z"/><path class="prefix__cls-1" d="M379.4 249.28c-5.91-.94-13.74-8.21-20.65-14.63-1.76-1.63-3.43-3.18-5.06-4.63 3.7-4.24 7.15-10.3 9.46-14.81a4.6 4.6 0 00-2.51-6.42c-.71-.26-1.5-.57-2.37-.92a83.27 83.27 0 00-14.06-4.41 35.28 35.28 0 00-9.35-.76 30 30 0 00-1.57-7.2 35 35 0 010-22.42l2.26-5.63-4.39 4.18c-6.11 5.82-9.62 6.37-16.61 7.48-3.09.49-6.94 1.1-11.88 2.33a58.61 58.61 0 00-7.37 2.36c.45-2.13.89-4.36 1.07-5.76.22-1.81.57-3.86.82-5.26a3.7 3.7 0 00-3.26-4.33l-1.22-.13c-3.67-.41-8.69-1-13 .36a18.44 18.44 0 00-4.46 2.08c-.55-.61-1.12-1.2-1.73-1.77a144.64 144.64 0 01-14.83-16.57l-1.28-1.74-1 1.93c-1.1 2.2-3.5 4.5-6.54 7.41a106.54 106.54 0 00-8.72 9.08 18.21 18.21 0 00-1.87 2.78 18.61 18.61 0 00-2.65-1.78c-4-2.14-10.91-1.81-16-1.17a3.78 3.78 0 00-2.84 1.93 3.87 3.87 0 00-.11 3.49 17.79 17.79 0 011.6 6.27c.05.77.13 1.58.23 2.39a58.57 58.57 0 00-6.14-1.58 117.25 117.25 0 01-28.28-10l-2.81-1.49.92 3c2.66 8.77.44 14.33-1.71 19.7-1.27 3.19-2.58 6.48-2.75 10.26v1.24a47.37 47.37 0 00-16.74 1.55c-3 .88-5.83 1.85-8.46 2.9a4.59 4.59 0 00-2.54 2.52 4.71 4.71 0 00.06 3.63c.22.48.44 1 .67 1.56a54.56 54.56 0 003.79 7.66 45.93 45.93 0 005.46 6.95c-.89.88-1.79 1.86-2.71 3-8.46 10.15-24.35 15.4-24.51 15.45l-4.92 1.6 5.09 1c13.57 2.55 15.36 8.59 17.63 16.24 1.27 4.3 2.72 9.18 6.47 13.91a27.91 27.91 0 0013.46 9 110.46 110.46 0 01-6.8 11.46 3.71 3.71 0 00-.45 3.53 3.76 3.76 0 002.76 2.2 127.56 127.56 0 0016.8 2.5c.64 12 8.81 27.43 9.16 28.09l.65 1.22 1.19-.7c.07 0 6.44-3.79 13.55-7.77a36.87 36.87 0 007.32 17 5.29 5.29 0 006.58 1.35c3.44-1.81 9.53-5.7 13.45-12 2.38 2.19 4.51 3.94 5.62 4.85 4.74 3.88 15.22 14.34 15.33 14.45l1 1 .93-1a120.67 120.67 0 0120-16.1 25.36 25.36 0 003.15-2.39 73.35 73.35 0 0011.05 10.56 4.73 4.73 0 002.88 1 5 5 0 00.67-.05 4.68 4.68 0 003.13-1.87 56.42 56.42 0 008.44-15.89c7 3.3 13.37 6.5 13.44 6.53l1.29.64.38-1h.24v-.55a79.92 79.92 0 014.53-9c2.68-4.77 5.21-9.28 6.05-14.94a23.08 23.08 0 00.25-2.84 83.29 83.29 0 0013.42-3 4.37 4.37 0 002.78-5.78 50.36 50.36 0 00-5.9-11.2 39.4 39.4 0 0020.25-23.23 25.46 25.46 0 0115-16.32l5.45-1.68zm-35.73-43.23a80 80 0 0113.63 4.29c.87.34 1.69.66 2.43.93a2 2 0 011.07 2.73c-1.85 3.6-5.38 10-9.11 14.29l-.25-.2c-.11-.09-.22-.19-.33-.27l-.33-.26-.34-.26-.33-.24-.35-.24-.33-.23-.34-.23-.34-.22-.35-.22-.33-.2-.35-.21-.34-.19-.35-.2-.34-.18-.35-.18-.34-.17-.35-.17-.33-.16-.35-.16-.34-.15-.34-.15-.35-.14-.33-.14-.35-.13-.33-.13-.34-.13-.33-.11-.33-.12-.33-.11-.34-.1-.31-.1-.34-.1-.3-.09-.34-.09-.29-.08-.35-.09-.27-.07-.35-.08-.26-.06-.35-.08h-.24l-.35-.07h-.23l-.36-.06h-.2l-.36-.06h-.18l-.38-.06H333.58a34.27 34.27 0 015.77-3.77 28.58 28.58 0 019.66-3 29 29 0 00-10.11 2 36.13 36.13 0 00-5.75 2.84c0-.05 0-.1.05-.16l.09-.34c0-.15.09-.31.13-.47s.07-.26.1-.38l.12-.5c0-.13.07-.28.1-.42l.12-.51c0-.15.07-.3.1-.46s.07-.35.11-.53.06-.32.1-.49.07-.37.1-.56.06-.33.09-.51.07-.38.1-.58.05-.35.08-.53.06-.4.08-.6.05-.37.08-.56 0-.41.07-.62l.06-.57c0-.22 0-.43.05-.65s0-.38.05-.58 0-.45 0-.67v-.59-.71V206.32v-.52a32.57 32.57 0 018.74.25zm-63.23-34.84c3.82-1.17 8.33-.67 12-.26l1.24.13a1.07 1.07 0 01.93 1.24c-.26 1.43-.61 3.53-.85 5.39-.21 1.71-.86 4.84-1.42 7.37l-.2.1-.41.19-.51.25-.4.2-.48.25-.39.2-.47.25-.37.21-.45.24-.36.21-.42.24-.35.21-.4.25-.34.2-.38.25-.33.2-.36.24-.31.21-.35.23-.29.2-.33.23-.28.2-.3.22-.28.2-.28.22-.26.19-.28.22-.23.18a3.11 3.11 0 00-.28.23l-.19.15c-.16.12-.31.25-.45.37l.06-.54v-.55a1.49 1.49 0 000-.21v-.35-.56a1.93 1.93 0 010-.24v-.33-.25-1.19c.57-1.86 1.15-3.7 1.82-5.51a30.65 30.65 0 011.47-3.44 9.19 9.19 0 012.22-3 9.48 9.48 0 00-2.69 2.7 35.39 35.39 0 00-2 3.27c-.38.71-.75 1.43-1.11 2.15a.77.77 0 010-.15c0-.09 0-.18-.05-.27l-.06-.37c0-.08 0-.17-.05-.25l-.09-.41a2.07 2.07 0 000-.22c0-.18-.08-.36-.13-.54v-.09c-.05-.21-.11-.42-.17-.63l-.06-.21-.12-.42-.09-.26-.12-.37c0-.1-.07-.19-.1-.29s-.08-.23-.13-.35a2.49 2.49 0 00-.11-.29l-.14-.35-.12-.3-.15-.34-.13-.3c-.06-.11-.11-.23-.16-.34l-.15-.3-.17-.34c-.05-.1-.1-.2-.16-.3l-.18-.34-.17-.31-.2-.33-.18-.31-.21-.33-.19-.31-.23-.33-.2-.3-.25-.35-.21-.29a.22.22 0 01-.05-.08 15.85 15.85 0 013.59-1.59zm-60.36.93a1.09 1.09 0 01.85-.58c6.69-.85 11.81-.54 14.43.87a15.06 15.06 0 012.72 1.9s0 .09-.05.14-.13.33-.2.5-.17.44-.25.65l-.18.53c-.08.22-.16.44-.23.66s-.11.36-.17.54-.13.44-.19.66-.11.37-.16.56-.12.43-.17.65-.1.38-.14.57-.11.43-.16.65l-.12.57c-.05.22-.1.44-.14.65s-.08.38-.11.57l-.12.65c0 .18-.07.37-.1.55s-.07.43-.1.64-.06.37-.08.55-.06.42-.09.63a23 23 0 00-2.28-3.38 30.67 30.67 0 00-7-6.22 30.4 30.4 0 016.07 6.86 19.9 19.9 0 012.75 6.72V191.82l-.45-.44-.14-.14-.34-.32-.19-.17-.34-.31-.23-.19-.34-.3-.26-.2-.36-.3-.28-.22-.39-.29-.31-.23-.4-.29-.34-.23-.43-.29-.36-.23-.45-.29-.39-.24-.48-.28-.42-.24-.5-.29-.44-.24-.53-.27-.47-.24-.56-.27-.5-.23-.59-.27-.52-.23-.63-.26-.54-.22-.27-.11c-.18-1.23-.31-2.43-.39-3.57a20.57 20.57 0 00-1.85-7.2 1.2 1.2 0 01-.09-1.08zm-65.88 43.13c-.24-.58-.47-1.11-.69-1.61a2 2 0 010-1.55 1.92 1.92 0 011.07-1.06c2.56-1 5.32-2 8.23-2.82a44.87 44.87 0 0112-1.6 38.88 38.88 0 014 .2.37.37 0 000 .11c0 .2 0 .39.05.58l.06.72c0 .2 0 .4.07.59l.09.71c0 .2.05.4.08.6s.07.46.1.69.07.4.1.6l.12.67c0 .2.07.4.11.6s.08.44.13.66l.12.58c0 .22.09.43.14.65l.12.56.15.64c0 .18.09.36.13.54s.1.41.16.62.08.34.13.51.1.4.16.6.09.33.13.49.11.39.16.58.09.3.13.45l.17.56.12.41c.06.19.11.36.17.54a2.76 2.76 0 00.08.27l-1.56-.91c-1.56-.89-3.15-1.74-4.78-2.53a50.23 50.23 0 00-5-2.09 32.64 32.64 0 00-5.19-1.4 32.59 32.59 0 015 1.91 48.94 48.94 0 014.66 2.55c1.51.93 3 1.92 4.41 3 .85.6 1.67 1.22 2.5 1.85-4.93 0-9.42 0-14 2.28l-.11.06-.5.25-.19.11-.42.23-.24.14-.38.22-.26.17-.36.23-.28.19-.34.23-.29.21-.34.25-.29.23c-.12.08-.23.17-.34.26l-.3.24-.17.14a43.57 43.57 0 01-5.17-6.56 51.54 51.54 0 01-3.65-7.35zM166.74 305a1 1 0 01.13-1 117.93 117.93 0 007.24-12.24l.36.09.68.16.45.1.57.13.47.09.55.1.47.09.52.09.46.07.52.07.44.06.52.07.42.05.51.05h.4l.51.05h2.2a27.78 27.78 0 00-3.36 2.26 34.55 34.55 0 00-6.74 7.09 33.91 33.91 0 017.37-6.18 25 25 0 015.74-2.64l-.27.54a.41.41 0 010 .09c-.07.16-.15.32-.22.49a1.42 1.42 0 00-.08.18c-.08.16-.15.33-.22.5l-.1.22-.21.53-.09.24c-.08.18-.14.37-.21.56s-.07.18-.1.27-.14.39-.2.59l-.09.29c-.07.21-.14.42-.2.63l-.09.31-.18.67c0 .1 0 .21-.08.32s-.12.47-.17.71 0 .22-.08.33-.1.49-.15.75l-.06.35c-.05.26-.1.52-.14.78s0 .25 0 .37l-.12.82v.39l-.09.84v.45c0 .28-.05.55-.06.84v1.33a125.65 125.65 0 01-16.22-2.43 1.07 1.07 0 01-1-.52zM221 347.67a2.64 2.64 0 01-3.29-.67 34.56 34.56 0 01-6.92-16.75l.2-.12.47-.3c.16-.11.33-.21.49-.33l.45-.31.47-.35.43-.33.45-.37.42-.35.43-.38.39-.36.42-.39.37-.37.39-.4.36-.37.37-.41.34-.38c.12-.14.24-.27.35-.41l.32-.37.34-.42.29-.36.32-.43.27-.35.3-.41c.08-.12.17-.23.25-.34l.29-.42.22-.32.28-.43.19-.28.13-.21v6.34c.07 3.69.19 7.37.38 11.05q.27-5.52.72-11c.15-1.73.3-3.46.48-5.19a1.63 1.63 0 00.11.23c.09.21.19.41.29.61l.24.48c.1.19.2.39.31.58l.28.5.32.57.31.51.35.57.34.52c.12.19.24.38.37.57l.37.53.39.56.4.54.42.57.42.54.45.57.44.54.48.59.47.54c.16.2.34.39.51.59l.48.54.55.6.5.55.58.6.52.54.61.62.55.54.25.25c-3.51 6.07-9.38 9.87-12.68 11.54zm76.3-.87a2.08 2.08 0 01-1.38.82 2.1 2.1 0 01-1.58-.42 71.33 71.33 0 01-10.75-10.3l.17-.19q.27-.29.51-.57c.2-.22.39-.44.58-.67l.47-.58.54-.7.44-.6c.17-.23.34-.47.5-.71l.4-.6c.16-.25.32-.49.47-.74s.25-.4.37-.6l.43-.74c.12-.2.23-.4.34-.6s.27-.5.4-.75l.31-.59c.12-.26.25-.51.37-.76l.27-.58c.12-.25.23-.5.34-.76s.17-.37.25-.55l.31-.76c.07-.18.15-.35.22-.53s.19-.5.28-.75.13-.34.19-.5l.27-.74c0-.16.1-.31.16-.47l.24-.73c0-.14.09-.28.13-.42s.15-.5.23-.74l.1-.34v-.09.12c.26 1.89.46 3.81.64 5.72.36 3.84.61 7.69.79 11.55.19-3.86.3-7.72.31-11.6 0-1.93 0-3.87-.09-5.82l.34.5.13.21.48.69.16.23.5.71c.06.07.11.15.17.23.18.24.35.48.54.72l.17.24c.19.24.37.49.57.73l.17.23.56.68.21.26.55.65.22.26.59.66.21.22.64.68.23.23.66.65.23.22c.22.21.45.41.68.61l.23.2.71.59.2.15c.25.2.5.38.75.56l.17.11c.27.19.54.37.81.53-1.79 6.42-5.8 12.44-8.09 15.54zm50.41-41.86a1.73 1.73 0 01-1.05.91 80 80 0 01-12.66 2.88V307.84l-.06-.6v-.45c0-.15 0-.44-.08-.66s0-.25-.05-.37c0-.34-.09-.68-.15-1v-.25c0-.25-.09-.5-.13-.74s-.05-.26-.08-.39-.07-.39-.11-.58l-.09-.41c0-.18-.07-.36-.11-.54s-.07-.26-.1-.39-.08-.35-.12-.51l-.09-.39c-.05-.16-.09-.32-.13-.48s-.06-.25-.1-.37l-.12-.46c0-.12-.07-.23-.1-.34s-.09-.3-.13-.45l-.09-.31c0-.14-.09-.28-.13-.42l-.09-.28c0-.14-.09-.28-.13-.41s-.05-.16-.08-.24v-.1a24.2 24.2 0 013.58 1.84 16.45 16.45 0 015.06 4.91 17.18 17.18 0 00-4.4-5.79 24.89 24.89 0 00-3.06-2.26l.44-.1.95-.22.58-.14.85-.22.6-.17.81-.23.61-.19.79-.26.59-.2.78-.28.58-.22c.26-.09.51-.19.77-.3l.56-.23.23-.09a47.39 47.39 0 015.9 11 1.68 1.68 0 01-.22 1.39zm14.34-37.58a36.91 36.91 0 01-20.35 22.36 47.47 47.47 0 01-12.51 3.62l-1.68.25.65 1.56a1.67 1.67 0 01.09.23 48.32 48.32 0 013.08 13.28q0 .78.06 1.56a22 22 0 01-.23 3.62c-.78 5.18-3.19 9.48-5.75 14-.87 1.55-1.76 3.14-2.6 4.79-.19-1.74-.42-3.47-.72-5.19a66.68 66.68 0 00-2.84-10.88 53.86 53.86 0 00-4.75-10.14l-.36-.6-.39-.58-.79-1.16c-.25-.39-.57-.74-.85-1.11s-.56-.75-.87-1.09a23.3 23.3 0 00-4.11-3.77 27.18 27.18 0 016.9 8.58 53.27 53.27 0 014.17 10.21 64.34 64.34 0 012.25 10.78 75.12 75.12 0 01.56 8.2c-2.46-1.22-7.68-3.79-13.09-6.33l-.3-.15c-6.91-3.52-13.58-15.9-13.64-16l-1.9-3.54-.58 4a1.7 1.7 0 010 .23c-.31 1.81-2.67 14.07-10.56 21.81a23.94 23.94 0 01-3.79 3 126.62 126.62 0 00-18.74 14.74l-1-41.41-1 41c-3.37-3.32-9.8-9.57-13.34-12.47-1.27-1-3.91-3.2-6.7-5.86-7.57-7.22-12-13.89-13.11-19.8l-.86-4.1-1.71 3.77c-.05.09-4.34 9.35-11.77 13.48l-1 .52c-5.4 3-10.5 6-13 7.4a79.43 79.43 0 01.57-8.71 85.24 85.24 0 011.94-10.63 54.77 54.77 0 013.55-10.2 29.08 29.08 0 012.73-4.67 17.13 17.13 0 013.78-3.87 17.36 17.36 0 00-4 3.7 30.44 30.44 0 00-3 4.59 55.93 55.93 0 00-4.12 10.15 86.46 86.46 0 00-2.52 10.69c-.33 2-.6 3.94-.8 5.92-2.53-5.54-6.43-15.24-6.71-23a2.62 2.62 0 010-.28v-.43c-.19-10.76 4.53-16.86 4.57-16.91l2-2.47-3.15.33a48.37 48.37 0 01-13.72-1c-.75-.17-1.51-.36-2.27-.58-5.91-1.69-10.51-4.56-13.67-8.55-3.43-4.33-4.74-8.74-6-13-2.09-7-4.07-13.72-15.43-17.08 5.51-2.3 15.34-7.17 21.64-14.72a35.9 35.9 0 013.44-3.63 19.54 19.54 0 0111.94-5.42c.58-.06 1.17-.1 1.76-.13s1.2 0 1.82 0h7.08l-.7-1.81s-.16-.38-.38-1c-1-2.79-3.63-10.75-3.94-17.9V203c.15-3.33 1.33-6.28 2.57-9.4 2-4.89 4.12-10.36 2.58-18.23a52.51 52.51 0 016.43 5.52 78 78 0 017.78 9.21 97.07 97.07 0 016.51 10.22 88.08 88.08 0 015.19 11 88.33 88.33 0 00-4.7-11.24 99.37 99.37 0 00-6.09-10.59 79.89 79.89 0 00-7.5-9.72c-.72-.78-1.45-1.55-2.21-2.3a113.67 113.67 0 0020.93 6.53 51.71 51.71 0 017.81 2.18l1 .38h.06l.88.36.2.09c.24.1.47.2.69.31l.26.11.6.29.23.11.59.3.23.12.55.29.24.13.5.28.24.15.46.27.25.16.42.25.27.18.36.24.28.19.31.22.29.21c.09.07.19.13.27.2l.29.22.24.18.29.23.2.17.29.24.18.14.29.26.13.12.3.27.1.09.3.28.07.08.3.29.3.32a13.49 13.49 0 011.72 2.16l2.6 4.65-.13-5.33v-.9-1.29c.11-4 .68-12.53 3.55-18.74a16.61 16.61 0 012.29-3.75 105.67 105.67 0 018.51-8.86c1.81-1.73 3.4-3.26 4.69-4.73l1 36.52 1-37.34a149.49 149.49 0 0013.28 14.53 28 28 0 012.31 2.45 24.74 24.74 0 012.06 2.87 21.75 21.75 0 013.16 11.37 35 35 0 01-.86 7.63l-1.07 5.06 3.37-3.93c0-.05 4.35-5 13.11-9h.78l.09-.38a55.84 55.84 0 018.69-2.94c4.83-1.21 8.61-1.81 11.66-2.29a47.69 47.69 0 008.16-1.76q-3.76 4.33-7.13 9a92.67 92.67 0 00-6.14 9.66 48.9 48.9 0 00-4.42 10.51 48.81 48.81 0 014.89-10.23 93.5 93.5 0 016.55-9.28c2.36-2.95 4.86-5.8 7.47-8.52 1.09-1.13 2.21-2.23 3.34-3.32.63-.4 1.28-.84 1.94-1.34a37.05 37.05 0 001.22 19.94 28 28 0 011.53 7.82c.05.86.07 1.72.05 2.56a46.77 46.77 0 01-2.88 15.11l-.77 1.9 2-.08c.75 0 11.28-.09 19.33 6.75l.79.68c1.92 1.66 3.9 3.51 6 5.46 6.24 5.8 12.66 11.75 18.49 14.23a28.45 28.45 0 00-13.25 16.6z"/><path class="prefix__cls-1" d="M343.32 273.84a99.32 99.32 0 00-25.06 7.3c-4 1.73-7.9 3.72-11.74 5.74s-7.64 4.1-11.49 6a87.69 87.69 0 01-11.85 4.89 67.82 67.82 0 01-12.43 2.83 77.73 77.73 0 01-12.77.6 123.09 123.09 0 01-25.5-3.13c-.52-.12-1-.21-1.57-.35l-1.55-.4-3.12-.82c-2.05-.64-4.12-1.2-6.14-1.94a113.92 113.92 0 01-11.94-4.79c-1.93-.93-3.86-1.88-5.7-2.95s-3.78-2.15-5.68-3.2c-3.81-2.09-7.63-4.15-11.49-6.14s-7.74-3.92-11.69-5.73a108.41 108.41 0 00-12.08-4.86c1 .41 2 .8 3 1.25s2 .87 2.95 1.36c1.95.93 3.89 1.91 5.81 2.9 3.84 2 7.63 4.08 11.4 6.22s7.52 4.29 11.25 6.49c1.85 1.12 3.73 2.2 5.55 3.34s3.83 2.17 5.78 3.17l3 1.42 3 1.34c2 .83 4.05 1.65 6.12 2.36s4.15 1.39 6.23 2.07l3.16.87 1.59.44c.52.15 1.06.25 1.59.38a124 124 0 0026 3.34 79.65 79.65 0 0013.17-.68 68.55 68.55 0 0012.87-3 92 92 0 0012.1-5.19q1.64-.84 3.24-1.71c1.42-.36 2.84-.69 4.27-1 1.58-.32 3.16-.66 4.75-.93l4.79-.89c1.59-.32 3.19-.64 4.79-1l2.38-.61c.8-.22 1.58-.44 2.37-.7a39 39 0 008.95-4.05 89.9 89.9 0 01-9.32 2.73c-.78.18-1.58.34-2.36.53l-2.37.47-2.38.47-2.39.44c-1.6.32-3.2.63-4.79 1-1.39.33-2.77.66-4.14 1.06 1.21-.69 2.43-1.37 3.65-2.05A131.14 131.14 0 01331 277.9a106.48 106.48 0 0112.5-3.33c2.12-.4 4.24-.82 6.39-1.12s4.29-.57 6.44-.84c-2.16.14-4.33.22-6.49.45s-4.37.49-6.52.78zM165.59 242.36c1.1-.18 2.22-.31 3.32-.53l1.65-.37c.55-.12 1.1-.23 1.64-.4a59.47 59.47 0 0012.48-5.12c7.93-4.29 15.09-9.75 22.43-14.78 3.68-2.51 7.4-4.93 11.24-7.12a89.24 89.24 0 0111.91-5.73 79.5 79.5 0 0112.62-3.75l3.24-.6 3.27-.42.81-.11.83-.06 1.64-.13 1.64-.12c.55 0 1.1 0 1.65-.05 1.1 0 2.2-.08 3.3-.08l3.31.07c1.11 0 2.21.1 3.31.16s2.2.12 3.29.26a73.63 73.63 0 0112.95 2.37 63.85 63.85 0 0112.23 4.78c1 .5 1.93 1.05 2.9 1.57s1.89 1.13 2.82 1.72c1.86 1.19 3.7 2.42 5.49 3.72 3.62 2.58 7.12 5.36 10.8 8a77.07 77.07 0 0011.57 7 57.06 57.06 0 0012.8 4.3l1.65.33c.55.11 1.11.17 1.66.26 1.11.16 2.22.35 3.34.43l1.67.14c.56 0 1.12.1 1.68.11l3.35.11-3.34-.31c-.55 0-1.11-.12-1.66-.21l-1.65-.24c-1.11-.13-2.2-.38-3.29-.59-.54-.11-1.09-.2-1.63-.33l-1.62-.42a58 58 0 01-12.38-4.74 77.52 77.52 0 01-11.13-7.21c-3.55-2.67-7-5.5-10.59-8.21a83.22 83.22 0 00-11.36-7.4 66 66 0 00-12.63-5.13 73.52 73.52 0 00-13.37-2.54c-1.12-.15-2.25-.21-3.38-.29s-2.26-.17-3.39-.18l-3.39-.08c-1.13 0-2.27 0-3.4.07h-1.7l-1.7.14-1.69.14-.85.07-.85.11-3.37.46-3.35.64a77.58 77.58 0 00-13 4 111 111 0 00-23.41 13.49c-3.63 2.62-7.21 5.31-10.8 7.94a132.61 132.61 0 01-11.08 7.4 60.92 60.92 0 01-12.07 5.46 46.93 46.93 0 01-13.11 2.29h3.35c1.11-.11 2.23-.18 3.35-.29z"/><path class="prefix__cls-1" d="M328.85 263.65l.3-.32a91.26 91.26 0 008-9.72 4.36 4.36 0 00.77-2v-.16a4.48 4.48 0 00-2.38-4.42 4.39 4.39 0 00-.95-.38c-.49-.13-1-.27-1.47-.43l-.62-.21-.83-.28-.76-.29-.73-.28-.75-.31-.81-.36-.64-.29c-.5-.23-1-.46-1.49-.71l-.51-.26-1.33-.7-.63-.34-1.25-.7-.43-.25-1.7-1-.35-.21-1.63-1-.12-.08c-1.93-1.22-3.87-2.5-5.86-3.82-1.57-1-3.16-2.08-4.78-3.12l-.39-.26a47.68 47.68 0 01-2-2.3q-1.74-2.06-3.47-4.15c-1.17-1.39-2.36-2.77-3.61-4.11a43.73 43.73 0 00-4-3.77 29.13 29.13 0 00-4.64-3.07 26.67 26.67 0 00-10.55-3 37.86 37.86 0 019.87 4.15 34.42 34.42 0 014.25 3.16 46.06 46.06 0 013.83 3.7c1.24 1.29 2.43 2.64 3.63 4 .8.88 1.6 1.78 2.42 2.65l-1.08-.64-.49-.29c-.67-.39-1.35-.79-2-1.17l-.21-.12c-1.74-1-3.54-1.91-5.4-2.8l-2.55-1.25v.09a76.65 76.65 0 00-29-6.63 84.82 84.82 0 00-50 13.45v-.09l-2.81 1.94-.78.54-.25.18-.73.53-.41.3c-.33.23-.65.47-1 .71l-.63.47-.47.37c-.3.22-.59.45-.88.68l-.17.13-1.09.87-.19.16c-2.34 1.9-4.47 3.77-6.38 5.53l-.11.1-.89.82-.09.08-.68.64-.35.33-.32.3-2 1.93-1.28 1.25-.8.71-.34.29-.49.4-.42.33-.45.33-.47.34-.42.29-.51.33-.41.26-.54.33-.4.23-.59.34-.33.17-.7.37-.35.17c-.19.09-.37.19-.56.27l-.63.3-.32.14-.74.32-.25.1-.67.27-.35.14-.53.19-.52.19-.4.14-.67.23-.31.1-.83.3-.2.06-1.06.31h-.12a3.74 3.74 0 00-2.66 3.27v.11a3.68 3.68 0 000 .47 1 1 0 000 .17 2.76 2.76 0 00.06.4v.13a3.31 3.31 0 00.12.42 3.74 3.74 0 001.89 2c1 .48 2 1 3 1.48l.84.42 2.14 1.11 1 .53 2.4 1.32.35.19.52.3c.93.53 1.85 1.06 2.75 1.6 1.52.91 3.22 2 5.18 3.32 12 7.9 32 21.1 64.24 21.1H261c.9 0 1.81-.07 2.7-.12h.68c.86-.05 1.72-.11 2.57-.19l.7-.06 1.95-.2.88-.1 2.12-.28 1.24-.19 1.13-.18c.79-.13 1.58-.27 2.35-.42l.55-.11a94.72 94.72 0 0048.27-25.46v.13zm-146.19-.44c-.95-.51-1.9-1-2.87-1.49l-.37-.19c-1-.52-2.1-1-3.16-1.54a1.13 1.13 0 01.19-2.11c1.05-.29 2.19-.64 3.39-1.05l.3-.11 1.38-.51.5-.2.95-.4.36-.15v2.22c0 .62.06 1.23.1 1.85v.43c0 .5.07 1 .11 1.51v.47c.06.61.13 1.22.2 1.82v.09l-.53-.28zm147.08-15.38l1.07.4.36.12 1 .35.36.11c.43.14.87.26 1.31.38a1.49 1.49 0 01.43.17 1.83 1.83 0 01.86 1 1.78 1.78 0 01.11.72 1.8 1.8 0 01-.34 1c-.25.37-.53.75-.82 1.15l-.33.45c-1.12 1.5-2.55 3.31-4.31 5.32 0-.49 0-1 .05-1.46V257v-2-2.83c0-.52 0-1-.07-1.57 0-.23 0-.46-.05-.7 0-.62-.09-1.25-.15-1.87v-.36l.18.07zm-137.26 21.11c-1.06-.69-2-1.31-3-1.87s-1.82-1.07-2.76-1.61v-.19c-.11-.76-.21-1.51-.3-2.27v-.34c-.09-.77-.16-1.55-.22-2.32v-.28c-.06-.8-.1-1.6-.13-2.4a1.09 1.09 0 000-.18v-2.51-.8l.47-.26.34-.19c.27-.15.54-.3.8-.46l.22-.13c.35-.21.68-.42 1-.64l.14-.09c.27-.19.55-.37.82-.57l.34-.24.59-.45.37-.29.58-.47.31-.27.86-.77 1.3-1.25 1-1 1.53-1.44.16-.16.45-.42.22-.2c.54-.5 1.09-1 1.67-1.54l.05-.05c2.69-2.43 5.77-5.06 9.28-7.65a45.38 45.38 0 1087.9-7.39l.87.47.23.12c1.29.71 2.55 1.44 3.79 2.18l.11.06c3.43 2.05 6.66 4.19 9.79 6.25 2.53 1.67 5 3.31 7.49 4.83l.33.21 1.47.88.34.2 1.71 1 .34.19 1.37.73.52.27 1.42.7.23.11c0 .3.07.6.1.9s.07.64.1 1 .08.89.11 1.33.05.6.07.9c0 .5.05 1 .07 1.49v5.46c0 .41 0 .82-.05 1.23v.74c0 .25 0 .75-.08 1.12l-.06.75-.09.87A92.45 92.45 0 01272.79 290h-.24q-2.67.39-5.47.64h-.51c-.9.08-1.81.15-2.73.2q-1.36.07-2.76.12h-3.48c-31.43 0-51.06-12.93-62.79-20.66l-.73-.49zm38.73-45.5l3.44 3 .13-.14-3.33-2.92c1.21-.42 2.44-.82 3.71-1.19l1.74 1.92a25 25 0 00-4.15 4.9l.08-.12-5.7-3.86c1.33-.57 2.69-1.09 4.08-1.59zm39.1-3.91l-1.77 2.75.15.11 1.85-2.83c1.29.19 2.56.4 3.79.64l-3.39 4.05a25.32 25.32 0 00-5-3.63l.13.07.77-1.55q1.76.15 3.47.39zm25.83 23.1v.28l-17.19.33v-.61c0-.79 0-1.57-.11-2.34v.13l17-2.37a43.48 43.48 0 01.3 4.58zm-.27-4.78l-17 2.42a25.1 25.1 0 00-1.23-5.72l16-6.42a43 43 0 011.4 4.7l-16.63 4.48a.83.83 0 000 .15l16.65-4.46a43.28 43.28 0 01.81 4.85zM293 226.47q.3.74.57 1.47l-16 6.49a.14.14 0 000 .06 28.59 28.59 0 00-1.12-2.74l12.69-7c1.33.55 2.6 1.13 3.86 1.72zm-4-1.82l-12.52 7a26 26 0 00-1.48-2.55l8.83-6.39c1.75.6 3.45 1.29 5.11 1.94zm-5.35-2L274.9 229a23.76 23.76 0 00-1.74-2.38l5.78-5.37c1.62.42 3.15.89 4.65 1.39zm-5.34 21.27c.22.13.43.27.64.41 0-.31 0-.62.05-.93l17.19-.28a45.38 45.38 0 01-.32 4.84l-14.25-1.47-1.12-.12c.05.06.09.12.14.17l1.09.12 14.11 1.5a43.29 43.29 0 01-.89 4.75l-12.05-2.75-.89-.21v.17l.88.21 12 2.78a41.68 41.68 0 01-1.45 4.6l-10.81-3.9-.84-.3v.14l.83.3 10.78 3.95a42.31 42.31 0 01-2 4.39l-10.12-5.13-.78-.4-.08.14.78.4 10.11 5.18a44.72 44.72 0 01-2.47 4.11l-9.73-6.53-.12.12 9.73 6.58a43.73 43.73 0 01-2.93 3.81l-9.65-8.36-.16.08 9.67 8.43a41.84 41.84 0 01-3.35 3.44l-10-11.07h-.3l10.06 11.21a45.28 45.28 0 01-3.74 3l-10-14.2-.12.08 9.93 14.24a42.74 42.74 0 01-4.06 2.57l-8.2-15.35-.13.08 8.15 15.37a43.44 43.44 0 01-4.35 2.09l-6.24-16.28a25.16 25.16 0 006.33-3.74 9.32 9.32 0 01-1.61-.75c-4.84-2.83-6-8.59-3.2-13.43s8.6-6.89 13.43-4.07zm-15.09 22l6.23 16.31a39.65 39.65 0 01-4.57 1.56l-4.27-17a25.86 25.86 0 002.55-.79zm-.78-47.09h.78l-.12.37.18.08.16-.44c1.09 0 2.17.12 3.23.22l-.72 1.48a24.37 24.37 0 00-4-1.76zm-2 48l4.21 17a41.25 41.25 0 01-4.75 1l-2.18-17.43h-.12l2.1 17.44a43 43 0 01-4.85.44v-17.62a24.94 24.94 0 005.56-.78zm-5.8 18.48h-1.22c-.74 0-1.48 0-2.21-.05l1.25-14.74.26-2.86H254.69zm-2.07-17.64l-.24 2.84L251 285.3a41.39 41.39 0 01-4.88-.55l3.64-17.34h-.11l-3.73 17.33a42.3 42.3 0 01-4.79-1.15l5.74-16.81h-.11l-5.83 16.78a40.84 40.84 0 01-4.64-1.72l7.76-16h-.1l-7.85 16a42 42 0 01-4.42-2.29l9.69-15a25 25 0 0011.26 3.3zm-11.23-3.32h-.06l-9.77 14.95a43 43 0 01-4.13-2.82l11.49-13.72a22.84 22.84 0 002.44 1.64zm-14.12 12a45.67 45.67 0 01-3.78-3.31l13.1-12.26-.11-.1-13.13 12.21a42.86 42.86 0 01-3.37-3.76l14.52-10.59a25.41 25.41 0 004.3 4.12zm-16.54-33.75c0-1.14 0-2.27.14-3.41l18 1.87c0 .51-.05 1-.05 1.54s0 1 .05 1.48l-18.08.29c-.07-.56-.09-1.15-.09-1.74zm18.09-1.6a.41.41 0 000-.11l-18-1.92a44 44 0 01.75-5.13l17.62 4a24.63 24.63 0 00-.37 3.16zm.38 6.21l-17.9 2.49a41.27 41.27 0 01-.55-5.13l18.08-.35a25.5 25.5 0 00.37 3.03zM211.28 250l17.9-2.55a25.1 25.1 0 00.73 2.9L212.46 255a43.81 43.81 0 01-1.18-5zm1.24 5.2l17.44-4.7a25.29 25.29 0 001.12 2.81l-16.73 6.73a43.64 43.64 0 01-1.83-4.89zm1.88 5l16.72-6.79a25 25 0 001.42 2.59l-15.77 8.71a44 44 0 01-2.37-4.57zm18.21-4.08a25.39 25.39 0 001.72 2.39L219.77 269a42.83 42.83 0 01-2.89-4.16l15.74-8.76zm.13-27.05a26.77 26.77 0 00-1.51 2.66l-8.83-4.52c1.45-.72 3-1.4 4.51-2.05zm-10.58-1.74l9 4.56a26.42 26.42 0 00-1.15 2.87L217.15 230q2.4-1.43 5.01-2.73zm7.81 7.54v-.1a25.79 25.79 0 00-.81 3l-17.59-4.09a2.21 2.21 0 01.05-.25c1.67-1.13 3.42-2.25 5.27-3.33zm48.76-13.61l-5.66 5.29a25.65 25.65 0 00-2.09-2.21l.1.1 3.48-4.14c1.44.23 2.81.54 4.17.9zM237 224l-1.66-1.85c1.12-.33 2.26-.64 3.42-.92l.62.88.17-.12-.57-.81c1-.24 2-.46 3-.66A25 25 0 00237 224z"/><path class="prefix__cls-1" d="M329.28 245.7c-18.07-8.21-31.4-26.89-64.26-28-39.83-1.33-61.72 19.72-73.25 30.35a28.71 28.71 0 01-5.39 3.89c-7.53-3.1-27.72-12.31-39.67-26.18-10.33-12-12.22-28.36-12.29-29.08.44 1 14.59 33.88 41.33 39.45 0 0-28.29-15.85-29.79-46.06 0 0 11.68 32.48 36.58 40.4 0 0-27.32-24.41-23.8-47.23 0 0 13.51 32.9 29.46 41.57-.3-.4-9.64-13-13-23.22-4.27-12.87-2.63-27.43-2.63-27.43s3.22 15.57 8.51 25.92c4.12 8.08 13.14 18.32 14.08 19.38-.72-.94-6.6-8.93-10.78-24.33-4.47-16.42-1.43-25-1.43-25s2.16 16.62 8.74 28.17a108.27 108.27 0 0012.89 18.32c-.4-.62-9.11-14-10.9-25.58-1.83-11.8 1.07-24 1.07-24s.73 13.18 3.61 22.55 8.14 18.59 12 23.15c-.24-.53-6.71-14.12-7.28-24.6-.56-10.32 3.3-20.88 3.58-21.59a48.9 48.9 0 001.1 20.15c2.82 10.06 10.13 23.12 10.81 24.32-.52-1-5.44-11-6-21.13a75.68 75.68 0 012.43-21.48s.4 14.54 2.55 22.6c1.87 7 10 18.85 10.51 19.58a120.09 120.09 0 01-5.89-21.08c-1.77-10.62 2.46-20.38 2.46-20.38s.07 14.23 2.34 22.33a56.44 56.44 0 008.19 17.38c-.18-.56-4.38-12.81-4.68-19.78-.37-8.38 3.52-19.3 3.52-19.3s-.49 5.26 1.4 19c.74 5.41 8.9 18.21 9.16 18.61a72.8 72.8 0 01-3.33-17.67c-.52-9.5 2.72-15.63 2.72-15.63s-.55 9.67 1 15.55c1.45 5.59 6.3 16.3 6.75 17.29a41.61 41.61 0 01-2.06-16.48c.67-9.56 2.78-14.44 2.78-14.44s-.6 10.76 1 17.81c1.53 6.84 6.4 13.5 6.7 13.9a39.34 39.34 0 01-3.14-13 66.59 66.59 0 011.59-15.63 68 68 0 001.1 15.66c1.52 6.78 6.2 13.28 6.57 13.78-.19-.27-1.64-2.63-1.87-8.32s2.71-13.77 2.9-14.3c-.06.55-1.07 8.65.73 15.3s4.32 9.4 4.32 9.4-1.5-3.49-.76-11.86 1.86-9.63 1.86-9.63-.24.63.7 10.68c.53 5.77 4.73 12.59 9.09 15 5.89 3.42 24.23 15.38 46.07 30.92z"/><path class="prefix__cls-11" d="M276.44 261a29.77 29.77 0 01-23.74 8.19 29.36 29.36 0 01-12.11-4.1l-1.37-.85-1.28-1c-.42-.33-.87-.62-1.26-1l-1.17-1.1a23.5 23.5 0 01-2.21-2.35c-.35-.41-.64-.87-1-1.3a13.23 13.23 0 01-.89-1.36 24.3 24.3 0 01-2.57-5.92 25.58 25.58 0 01-.83-6.39 23.47 23.47 0 013.5-12.21 24.77 24.77 0 011.86-2.61c.33-.42.71-.79 1.07-1.18a12.27 12.27 0 011.14-1.14 18.08 18.08 0 015.42-3.46 18.92 18.92 0 0112.61-.67 18.68 18.68 0 015.7 2.84 16.16 16.16 0 014.39 4.63 15.17 15.17 0 011.58 12.35 14.86 14.86 0 01-3.14 5.5 11.92 11.92 0 01-17.14 1 9.59 9.59 0 01-3-5.48 9.71 9.71 0 011-6.15 8.41 8.41 0 014.68-4 7.54 7.54 0 016.09.64 7.23 7.23 0 012.3 2.1 6 6 0 011 2.94 5.91 5.91 0 01-2.61 5.35 4.82 4.82 0 01-3 .69 4.7 4.7 0 01-2.76-1.26 3.77 3.77 0 01-1.22-2.72 3.71 3.71 0 011.13-2.74 3.7 3.7 0 00-1.07 2.74 3.64 3.64 0 001.25 2.63 4.58 4.58 0 005.52.45 5.59 5.59 0 001.36-7.83 6.78 6.78 0 00-2.18-1.91 7 7 0 00-5.65-.49 7.72 7.72 0 00-4.22 3.79 8.9 8.9 0 00-.82 5.64 8.7 8.7 0 002.84 4.9 10.72 10.72 0 0010.8 2.09 10.62 10.62 0 004.63-3.25 13.33 13.33 0 002.74-5 13.53 13.53 0 00-1.62-11 14.51 14.51 0 00-4-4 16.66 16.66 0 00-16.33-1.62 15.67 15.67 0 00-4.7 3.14 10.61 10.61 0 00-1 1c-.31.37-.65.7-.94 1.09a22.44 22.44 0 00-1.61 2.37 20.81 20.81 0 00-2.89 10.9 22.21 22.21 0 00.85 5.61 21.15 21.15 0 002.35 5.14 10 10 0 00.8 1.16c.29.37.54.77.86 1.12a21.16 21.16 0 002 2l1.07.95a13.72 13.72 0 001.14.87l1.16.84 1.23.72a25.85 25.85 0 0031.38-4.14z"/></g></g></svg>